<svg height="660.1991" width="600" xmlns="http://www.w3.org/2000/svg" xmlns:xlink="http://www.w3.org/1999/xlink"><radialGradient id="a" cx="221.44487" cy="226.33101" gradientTransform="matrix(1.353218 0 0 1.348928 -77.62935 -85.74693)" gradientUnits="userSpaceOnUse" r="300"><stop offset="0" stop-color="#fff" stop-opacity=".313726"/><stop offset=".19" stop-color="#fff" stop-opacity=".25098"/><stop offset=".60000002" stop-color="#6b6b6b" stop-opacity=".12549"/><stop offset="1" stop-opacity=".12549"/></radialGradient><g transform="translate(0 -.439335)"><g fill-rule="evenodd"><path d="m300 659.13843s298.50001-112.35073 298.50001-398.14125v-258.8587583h-597.00001v258.8587583c0 285.79052 298.5 398.14125 298.5 398.14125z" fill="#fcef3c"/><g fill="#e20909" stroke="#000" stroke-width="2.5" transform="translate(0 .439335)"><path d="m300 1.6992188v50.8299572h49.9375v-50.8299572zm49.9375 50.8299572v49.937504h49.9375v-49.937504zm49.9375 0h49.96875v-50.8299572h-49.96875zm49.96875 0v49.937504h49.9375v-49.937504zm49.9375 0h49.9375v-50.8299572h-49.9375zm49.9375 0v49.937504h48.78125v-49.937504zm0 49.937504h-49.9375v49.96875h49.9375zm0 49.96875v49.9375h48.78125v-49.9375zm0 49.9375h-49.9375v49.9375h49.9375zm0 49.9375v49.88879h46.5957c1.42324-13.47837 2.18555-25.98592 2.18555-40.3302v-9.55859zm-49.9375 0h-49.9375v49.88879h49.9375zm-49.9375 0v-49.9375h-49.96875v49.9375zm-49.96875 0h-49.9375v49.88879h49.9375zm-49.9375 0v-49.9375h-49.9375v49.9375zm0-49.9375h49.9375v-49.9375h-49.9375zm0-49.9375v-49.96875h-49.9375v49.96875zm49.9375 0h49.96875v-49.96875h-49.96875zm49.96875 0v49.9375h49.9375v-49.9375z"/><path d="m134.58594 302.1991 165.1875 169.23645v-41.90625l-124.125-127.3302zm-130.8867212-.039c1.5001071 14.09917 3.73772 27.73334 6.6386722 40.90234l289.435549 296.02936v-41.90625l-288.406252-294.98645zm48.7304692.039 247.343752 253.0802v-41.9375l-206.250002-211.1427zm164.312502 0 83.03125 85.39283v-41.90625l-41.9375-43.48658zm-187.062502 102.62707c53.412909 129.2418 169.490412 203.71368 230.701172 235.43555z"/></g></g><g><path d="m595.28125 302.63843h-591.6214395m296.3401895-300.4999983v656.9588783" fill="none" stroke="#000" stroke-width="3"/><g id="b" fill="#e20909" stroke="#000" stroke-linecap="round" stroke-linejoin="round" stroke-width="2.674085" transform="matrix(.6941312 0 0 .61699843 389.77994 -196.9519)"><path d="m-250.31187 428.84843c16.10696-.5925 35.11532 20.1537 54.67048 15.7155 19.6749-4.4653 12.7816-18.6491-4.1907-23.0489-29.9908-7.7746-88.41978 2.791-110.86318-15.0484-3.7307-2.9654-18.1478-22.5161 16.3819-25.3348 1.5238-7.3654 7.9197-7.8921 19.8105-6.0955 9.8816 1.493 19.172 8.2543 27.9064-3.0478.7069 3.9956 3.3312 14.3472-17.0486 9.7148-9.4237-2.1604-17.4346-1.9662-23.8108.9525 8.1678-2.9149 15.1494-3.9755 25.9061 1.5949 4.4891 2.3247 11.8565 6.6257 24.1127-4.4627 6.7945-6.1473 25.20248-1.7563 18.508 8.2014-6.7929-11.8068-17.6394.8214-23.1911 6.8575-15.4474 16.7954-28.5712-1.1363-40.3831-4.7622 18.3178 4.8315-.8085 17.7902-7.8099 9.9053 17.9755-1.77-.2902-13.7012-12.5238-8.1328-7.2129 3.2831-2.7846 7.9488.6523 10.2184 20.4825 13.526 84.42028-3.4681 119.49638 15.6297 18.6987 10.1808 12.0371 27.173 2.4763 32.9541-14.4586 8.7426-21.67488 4.7994-41.43178 6.7622z" fill="#e20909" stroke="#000" stroke-linecap="round" stroke-linejoin="round" stroke-width="2.674085"/><g fill="#e20909" stroke="#000" stroke-linecap="round" stroke-linejoin="round" stroke-width="2.674085" transform="translate(-1201.2206 -657.85547)"><path d="m285.64366 328.94814c-22.90621-3.52086-41.20626 3.23434-41.42102 17.21393-.0893 5.80946 4.781 5.42294-.68968 10.91045-11.24315 9.05981-3.30923 13.46987 0 11.83458-.32736 5.41927-12.10774 5.39009-10.06903-2.45523-8.86858 7.08335-2.45232 9.97575 1.1931 9.17942-5.51563 6.51918-12.74211 1.63037-10.87593-7.95181-.89859 5.0652 2.30637 13.75951-6.45523 12.52426 1.3582-2.24381 1.24648-2.8551 1.34484-5.41387-2.886 3.69358-6.83939 3.91818-11.02767 3.37935 4.12466 6.42197-12.854 14.91872-14.52426 4.03452-5.65925.20017-11.64875-.0305-11.83457 3.76554-8.40741 5.28614-15.23839 4.0416-16.13806-.11722-2.38862 3.00597-11.81822 3.25338-13.29029-2.8467.98467-2.22649 1.78207-3.32463 3.72468-8.33272 1.19768-3.08763 6.23791-1.31187 9.29664-2.95864 4.0709-2.19171 6.75508-5.81471 13.17941-5.37935 5.68184.38504 11.09857-1.42659 15.70601-7.11645 4.8423-5.97989 6.9648-3.47316 11.7287-8.75265 6.36967-7.05904-1.96579-14.3974 2.03451-21.66915-4.50876 8.5497-23.00035 11.95346-22.26819.0541 5.292 6.0038 12.763 3.32393 18.92561-2.55228 5.45363-5.20017 9.6945-8.64212 13.68058-11.60541 9.84039-7.31544 29.94967-14.30847 33.62096-19.9036z" fill="#e20909" stroke="#000" stroke-linecap="round" stroke-linejoin="round" stroke-width="2.674085" transform="translate(668.92093 819.094)"/><path d="m234.61933 353.56378c2.28363-1.02836 5.15865-1.99976 2.71236-6.04117-1.49717-2.47341-.62434-4.60279.49316-6.90419" fill="#e20909" stroke="#000" stroke-linecap="round" stroke-linejoin="round" stroke-width="2.674085" transform="translate(668.92093 819.094)"/><path d="m214.89306 329.89226c-5.57847 7.38487-1.45072 10.88726 2.58907 14.42483" fill="#e20909" stroke="#000" stroke-linecap="round" stroke-linejoin="round" stroke-width="2.674085" transform="translate(668.92093 819.094)"/><path d="m834.06708 1204.9461c-1.12849-2.8211-1.07603-5.5692 3.51347-8.2469 4.20219-2.4518 5.98129-1.0202 8.01379-5.6713" fill="#e20909" stroke="#000" stroke-linecap="round" stroke-linejoin="round" stroke-width="2.674085"/><path d="m850.20514 1205.0633s2.93007-4.4542-1.1587-7.0079" fill="#e20909" stroke="#000" stroke-linecap="round" stroke-linejoin="round" stroke-width="2.674085"/><path d="m827.35153 1199.0236c-.28673-1.8111 1.01251-3.2697 3.19334-4.5325" fill="#e20909" stroke="#000" stroke-linecap="round" stroke-linejoin="round" stroke-width="2.674085"/></g><g fill="#e20909" stroke="#000" stroke-linecap="round" stroke-linejoin="round" stroke-width="2.674085" transform="translate(-1201.2206 -657.85547)"><path d="m824.38029 1194.0778c-.23028 3.5642-2.11051 5.0659-3.32216 7.4033-1.54043.5024-1.41164 3.0079-1.65764 5.0637 0 0-6.65895-4.4235-2.75879-9.7812 1.39405-1.915 4.85749-3.3032 7.73859-2.6858z" fill="#e20909" stroke="#000" stroke-linecap="round" stroke-linejoin="round" stroke-width="2.674085"/><path d="m827.35154 1199.0236c-5.90078 6.2815-2.74946 8.4559-.82408 11.0221 4.3102-2.0826 2.34461-4.8768 5.04752-5.4595-.00005-1.7512.29036-3.3572-.20602-5.3566-1.33914.9334-2.67828.7828-4.01742-.206z" fill="#e20909" stroke="#000" stroke-linecap="round" stroke-linejoin="round" stroke-width="2.674085"/><path d="m842.28811 1197.8905c-.44783 4.2263.56364 5.5341 1.44215 7.1077-4.20968.6204-1.20917 3.3011-6.69571 5.2536-1.13125-1.1473-5.37567-8.5788 5.25356-12.3613z" fill="#e20909" stroke="#000" stroke-linecap="round" stroke-linejoin="round" stroke-width="2.674085"/><path d="m870.10102 1197.8905c1.82359 3.2285 1.26162 3.8155-.19774 6.3773-1.13656 1.9951.27181 4.922 2.15495 5.1599 2.42519-2.2115 6.26981-4.5459 4.43593-7.6485-1.0863-1.8378-1.24444-3.4547-6.39314-3.8887z" fill="#e20909" stroke="#000" stroke-linecap="round" stroke-linejoin="round" stroke-width="2.674085"/></g><g fill="#e20909" stroke="#000" stroke-linecap="round" stroke-linejoin="round" stroke-width="2.674085" transform="translate(-1201.2206 -657.85547)"><path d="m147.09942 333.67775 3.75914-39.66711-66.801748 19.88904c-7.528046 13.55637-13.462568 18.50711-18.335922 20.39614-4.649823 1.80239-6.485452 4.5479-6.180648 8.24086-8.712118 3.09979-13.588479 10.03434-19.572052 15.86366-4.338131 4.2263-7.44855 4.68108-11.125166 6.59269-7.778618-2.36588-7.855897 2.53379-11.743231 3.91441-1.813517.37837-3.870694 1.06131-7.004735 3.09033-2.6981321.1572-4.6034883-.47838-9.4769932 1.85419 2.7870894 3.57465-6.6687482 15.72424 8.2779543 10.25713 2.9157379 2.30694 6.0328749 5.58699 10.8820539-.16207 4.677979 9.07398 13.852327 2.02885 11.743232-1.03011 4.065456.21007 10.603608-5.34799 11.949252 1.44215 1.82715 9.21983 21.319687-6.51914 9.683016-9.88903 17.448289-1.25736 20.613467-9.71024 28.637002-15.86367-9.135599 8.25059-1.131297 13.57615 2.678281 10.97936-1.729743-3.93729-1.203745-8.9001 7.004734-11.3914 6.84443-2.0773 10.13417-3.8342 13.80345-6.38667-3.85312 6.39036 3.11131 11.99611 7.00473 7.88904-7.08334-4.17462-1.97495-9.12761 2.31019-11.0096 7.30578-3.20862 4.59288 1.0918 17.87993-5.73837z" fill="#e20909" stroke="#000" stroke-linecap="round" stroke-linejoin="round" stroke-width="2.674085" transform="translate(668.92093 819.094)"/><path d="m50.24367 368.80132c11.046375-2.61493 15.489953-8.25614 18.622653-14.49817" fill="#e20909" stroke="#000" stroke-linecap="round" stroke-linejoin="round" stroke-width="2.674085" transform="translate(668.92093 819.094)"/><path d="m678.29475 1195.7693c.86356-.9582 1.30181-2.6596 4.49943-2.8746 6.39286-.4298 9.31502-2.1168 11.87351-4.7494" fill="#e20909" stroke="#000" stroke-linecap="round" stroke-linejoin="round" stroke-width="2.674085"/><path d="m688.66844 1198.769c1.05846-7.1349 9.18072-4.2627 13.87325-6.2493" fill="#e20909" stroke="#000" stroke-linecap="round" stroke-linejoin="round" stroke-width="2.674085"/></g><g fill="#e20909" stroke="#000" stroke-linecap="round" stroke-linejoin="round" stroke-width="2.674085" transform="translate(-1201.2206 -657.85547)"><path d="m83.604843 310.2501c-9.304158-4.47559-19.323727-3.36138-24.568865-16.85702-9.636724.40106-3.246582-3.22686-7.953949-5.83289-3.897545-2.15771-5.467131-2.18815-5.302633-6.89343-.133384 6.19732-.423921 9.79957-9.544739 8.83772 2.014367-2.4455 5.587433-4.70749 3.358334-9.01447-1.621299-3.13261-1.890631-5.9695-1.414035-9.19123-7.098904-4.56374-8.935582-9.9805-9.367985-18.02895-2.102522 22.4192-20.8270066-7.88295-5.832896-5.65614 1.938769-10.24807-2.98809-15.91906-7.953949-21.56404-22.5494548.001-3.759898-23.06831 2.651317-9.89825 1.249223 1.99127 3.499414 8.28421 7.246931 10.42851-2.902205-3.19394-4.166321-6.11486-4.242106-8.83772-14.0892932-17.86216 20.255032-14.16834 8.660967-2.12106.250198 4.68522 1.073107 5.93417 1.767544 7.95395l1.060526-3.35833c-2.716259-19.59758 17.540051-1.38078 10.428512 2.47456-2.032142 1.00481-3.021711 1.19489-4.595616 4.94913 4.375594 4.63106 8.2978 10.00372 11.665792 16.08465 4.223807 7.62611 13.298026 8.16322 20.150005 13.25658 15.904598 11.82254 18.252487 8.04095 25.806146 10.075l13.990346 21.59671z" fill="#e20909" stroke="#000" stroke-linecap="round" stroke-linejoin="round" stroke-width="2.674085" transform="translate(668.92093 819.094)"/><path d="m43.51467 262.06836c.03364 5.0032.352604 9.89228 4.018871 13.44243" fill="#e20909" stroke="#000" stroke-linecap="round" stroke-linejoin="round" stroke-width="2.674085" transform="translate(668.92093 819.094)"/><path d="m41.990271 255.00069c-1.57642 5.21991-2.103041 10.43983 0 15.65974" fill="#e20909" stroke="#000" stroke-linecap="round" stroke-linejoin="round" stroke-width="2.674085" transform="translate(668.92093 819.094)"/><path d="m32.42813 240.03386c2.931239 4.28843 2.282507 7.90561-.692909 11.08654" fill="#e20909" stroke="#000" stroke-linecap="round" stroke-linejoin="round" stroke-width="2.674085" transform="translate(668.92093 819.094)"/><path d="m37.278491 249.18026-.83149 5.95902" fill="#e20909" stroke="#000" stroke-linecap="round" stroke-linejoin="round" stroke-width="2.674085" transform="translate(668.92093 819.094)"/></g><g fill="#e20909" stroke="#000" stroke-linecap="round" stroke-linejoin="round" stroke-width="2.674085" transform="translate(-1201.2206 -657.85547)"><path d="m240.53721 311.1523c7.56174.75926 24.38155 2.45539 21.45232 9.36998-1.97309 4.65757 4.30611 5.61114 8.75353 5.91788 4.09577.28249 4.96961-1.1662 5.54802-2.09592l-15.04128-16.12351c-4.76649.12783-16.66319-1.42581-20.71259 2.93157z" fill="#e20909" stroke="#000" stroke-linecap="round" stroke-linejoin="round" stroke-width="2.674085" transform="translate(668.92093 819.094)"/><path d="m172.85806 256.90126c16.272 3.71101 32.48269.16505 45.20678 1.46945 6.43345.65952 16.46312 3.88888 31.1598 3.13575 15.93551-.81662 24.23642 1.50642 34.1685 4.8422 16.06911 5.39695 22.63763 19.17808 32.14141 30.18157 9.81101 11.35919 18.57125 18.71097 37.66014 15.10471 3.26448-2.60399 5.8639-.4923 7.64175 1.83687 3.88171 5.08543 6.92231-.41189 9.03826-2.89983 5.01643-5.89834 11.64199-.59825 9.8393 3.32596-6.82533-4.32045-4.03256 6.41294-10.39363 8.3149 2.83047-1.06277 7.51481-8.79147 10.11647-4.71178-3.46904.91184-2.60113 5.87136-8.59207 8.59207 2.79185.46805 6.40922-6.9265 8.45349-.48504-4.59049-1.01935-2.60224 9.0877-8.73066 5.05824 2.39318 4.60098 10.78115 5.2049 5.40469 14.27392-2.20905-4.20447-2.81772-2.10125-5.19681-5.33539 2.13276 9.29997-.026 15.4528-3.39526 20.71797 17.00057 3.01058 3.60654 22.99389-3.39525 15.52115-.58551.72697-1.51638.93591-2.84092.55433 1.71398 10.7035-11.24286 12.85262-16.49123 2.35589-1.78871 9.93993-13.97866 5.29212-13.7196 2.21731-1.1501 2.17402-9.2757 6.97051-11.22512-.97008-.34224-2.41119.68747-5.27969 1.38582-8.03774 2.07873-2.30687 4.15745-2.06889 6.23618-.69291 1.8277-1.15545 2.37136-2.80477 8.73065-2.2173 10.82365-10.32437 5.61155-16.4804 3.39525-20.30224-7.40956-12.7772-23.78826-4.71753-36.65487-9.0771 3.79952 10.71745-6.08499 12.76364-12.47236 12.88811-2.74876.0536-5.9856-.0754-6.23618 5.95901-2.5908-.96811-6.43509-8.25599 2.91022-9.70072 10.70424-1.65481 12.40692-8.47224 3.11809-13.30384-21.39069-11.1264-18.95175-12.75853-23.07386-18.56996-8.6773-12.23343-28.59931-10.73377-50.30518-6.92909-5.63142.98709-9.76299 2.86791-13.30385 4.98894-6.01355 3.60222-10.83625 4.25768-15.9369 4.29604-4.8921.0368-7.12119 2.14928-10.25505 3.88029-8.59314 4.74647-13.5328 4.99583-18.01563 5.2661z" fill="#e20909" stroke="#000" stroke-linecap="round" stroke-linejoin="round" stroke-width="2.674085" transform="translate(668.92093 819.094)"/><path d="m347.19185 318.06709c4.62634.80996 12.31979-3.10268 13.87492 2.43737.65132 2.32029-.68063 5.14686.67223 6.29092" fill="#e20909" stroke="#000" stroke-linecap="round" stroke-linejoin="round" stroke-width="2.674085" transform="translate(668.92093 819.094)"/><path d="m360.7576 341.6274c5.26961 1.99001 4.8917 5.34911 5.53055 8.46173" fill="#e20909" stroke="#000" stroke-linecap="round" stroke-linejoin="round" stroke-width="2.674085" transform="translate(668.92093 819.094)"/><path d="m358.7113 334.99074c2.56345 1.33786 5.10491 2.71603 6.80257 5.64116" fill="#e20909" stroke="#000" stroke-linecap="round" stroke-linejoin="round" stroke-width="2.674085" transform="translate(668.92093 819.094)"/><path d="m357.05213 328.24347c1.96582 1.64388 3.84127 2.83588 6.08361 5.86238" fill="#e20909" stroke="#000" stroke-linecap="round" stroke-linejoin="round" stroke-width="2.674085" transform="translate(668.92093 819.094)"/><path d="m1013.6399 1198.0526c-.7959-3.4691.2186-6.0774 3.0418-7.4662 2.6877-1.3223 5.1232-2.7302 4.9775-6.8026" fill="#e20909" stroke="#000" stroke-linecap="round" stroke-linejoin="round" stroke-width="2.674085"/><path d="m999.81357 1194.9555c.52133-2.9928 2.37243-5.8622 6.41543-5.3093 2.2816.312 4.6554.2293 7.7981-3.5949" fill="#e20909" stroke="#000" stroke-linecap="round" stroke-linejoin="round" stroke-width="2.674085"/><path d="m1032.9969 1195.1214c.937-1.5571 3.6535-5.4218 1.7697-9.8997" fill="#e20909" stroke="#000" stroke-linecap="round" stroke-linejoin="round" stroke-width="2.674085"/><path d="m302.21793 320.84644c7.04851 3.73064 24.15957 3.59107 20.96128 11.26278" fill="#e20909" stroke="#000" stroke-linecap="round" stroke-linejoin="round" stroke-width="2.674085" transform="translate(668.92093 819.094)"/><path d="m271.55814 273.29248c16.25984 3.16088 30.08052 6.61473 43.04647 22.1277" fill="#e20909" stroke="#000" stroke-linecap="round" stroke-linejoin="round" stroke-width="2.674085" transform="translate(668.92093 819.094)"/><path d="m212.42854 299.5723c-13.04179 1.75676-10.71666 13.72973-24.71554 15.48632 2.6603-2.96852 5.75878-4.40341 7.66495-10.01136" fill="#e20909" stroke="#000" stroke-linecap="round" stroke-linejoin="round" stroke-width="2.674085" transform="translate(668.92093 819.094)"/><path d="m179.89162 317.09218c3.02098-1.96543 6.13505-2.90686 8.75994-9.22922" fill="#e20909" stroke="#000" stroke-linecap="round" stroke-linejoin="round" stroke-width="2.674085" transform="translate(668.92093 819.094)"/></g><g fill="#e20909" stroke="#000" stroke-linecap="round" stroke-linejoin="round" stroke-width="2.674085" transform="translate(-1201.2206 -657.85547)"><path d="m984.05583 1205.3316c3.21985-.591.89747-7.0094 6.42334-6.7005.85295-1.9985 3.40864-3.8998 1.06008-7.2962-12.52179 1.1032-8.69452 11.9555-7.48342 13.9967z" fill="#e20909" stroke="#000" stroke-linecap="round" stroke-linejoin="round" stroke-width="2.674085"/><path d="m998.19953 1205.9198c2.98737.2658 2.32987-6.4579 6.40047-7.3147-.8977-1.3254-1.5675-2.7363-1.2573-4.5146-8.36613.1219-7.59597 9.7418-5.14317 11.8293z" fill="#e20909" stroke="#000" stroke-linecap="round" stroke-linejoin="round" stroke-width="2.674085"/><path d="m1016.1995 1207.9198c2.9874.2658.3299-6.4579 4.4005-7.3147-.8977-1.3254-1.5675-2.7363-1.2573-4.5146-8.3661.1219-5.596 9.7418-3.1432 11.8293z" fill="#e20909" stroke="#000" stroke-linecap="round" stroke-linejoin="round" stroke-width="2.674085"/><path d="m1044.6848 1196.8912c-2.9874.2658-.3299-6.4579-4.4005-7.3147-1.2629-.391-2.443-5.0913 1.2573-4.5146 7.8521 1.2238 5.596 9.7418 3.1432 11.8293z" fill="#e20909" stroke="#000" stroke-linecap="round" stroke-linejoin="round" stroke-width="2.674085"/></g><g fill="#e20909" stroke="#000" stroke-linecap="round" stroke-linejoin="round" stroke-width="2.674085" transform="translate(-1201.2206 -657.85547)"><path d="m672.67046 1199.6438c3.08598-2.0745 1.44545-8.8392-3.62455-6.9991-7.90595 2.8695-7.00277 11.0818-5.12435 12.3735 2.2639-2.0633 2.81138-4.8418 8.7489-5.3744z" fill="#e20909" stroke="#000" stroke-linecap="round" stroke-linejoin="round" stroke-width="2.674085"/><path d="m674.79519 1209.5176c-5.80836-3.4618 1.64884-13.0134 3.62454-13.4983 4.51208-1.1073 5.36387 1.8408 4.99937 6.3742-4.36138-1.4909-5.77732 4.6765-8.62391 7.1241z" fill="#e20909" stroke="#000" stroke-linecap="round" stroke-linejoin="round" stroke-width="2.674085"/><path d="m692.79292 1198.519c-9.37266-1.2736-8.40016 11.5879-3.1246 12.7484 1.00391-3.2509 2.04234-6.1565 3.37457-6.1242-.8471-1.5971-1.06698-3.6959-.24997-6.6242z" fill="#e20909" stroke="#000" stroke-linecap="round" stroke-linejoin="round" stroke-width="2.674085"/><path d="m718.57845 1198.0191c9.12269-.6487 6.77536 10.338 2.24971 12.3734-1.00391-3.2509-2.04234-6.1565-3.37457-6.1242.8471-1.5971 1.94187-3.3209 1.12486-6.2492z" fill="#e20909" stroke="#000" stroke-linecap="round" stroke-linejoin="round" stroke-width="2.674085"/></g><g fill="#e20909" stroke="#000" stroke-linecap="round" stroke-linejoin="round" stroke-width="2.674085" transform="translate(-1201.2206 -657.85547)"><path d="m6.8934226 217.38868c-.326714-7.13142-5.1330268-4.02376-8.4842124-4.24211 4.0780714-9.79849 16.9363698-5.12982 18.3824598 2.82807-3.693485 5.20018-7.8599403 3.17292-9.8982474 1.41404z" fill="#e20909" stroke="#000" stroke-linecap="round" stroke-linejoin="round" stroke-width="2.674085" transform="translate(668.92093 819.094)"/><path d="m19.796496 253.09307c-4.294871 2.4731-7.74229-1.06485-9.367985.88378 2.429091 6.08039 6.849415 8.26481 11.135529 5.65614 2.685959-1.63477 3.565486-3.88614 2.828071-5.47939-.600734-1.29794-2.474619-2.28186-4.595615-1.06053z" fill="#e20909" stroke="#000" stroke-linecap="round" stroke-linejoin="round" stroke-width="2.674085" transform="translate(668.92093 819.094)"/><path d="m690.4611 1026.8608c3.28277-6.3394-2.2567-5.6977-5.04972-7.5625 8.43094-6.4466 15.05549 3.6721 12.32889 11.287-5.79875 2.6567-6.39337-1.1822-7.27917-3.7245z" fill="#e20909" stroke="#000" stroke-linecap="round" stroke-linejoin="round" stroke-width="2.674085"/><path d="m704.56307 1030.7665c5.25299-4.8342-.17188-6.1259-2.15865-8.8335 10.12734-3.1742 12.89159 8.5999 7.72499 14.823-6.3577.5132-5.60348-3.2975-5.56634-5.9895z" fill="#e20909" stroke="#000" stroke-linecap="round" stroke-linejoin="round" stroke-width="2.674085"/></g><path d="m-437.24908 383.39857c-.13226 7.39164 1.25736 14.23897 8.13076 19.12503 7.20573 4.17759 14.553.87396 21.94795-6.43571 7.81608-7.51869 17.21782-6.19951 23.15457-4.33553.97731-3.47652-.22225-4.88937.0442-7.21763-8.87465-3.83641-21.79594 2.11775-31.63242 6.95016-9.84816 5.98511-16.30296.9701-21.64503-8.08632z" fill="#e20909" stroke="#000" stroke-linecap="round" stroke-linejoin="round" stroke-width="2.674085"/><path d="m-402.2902 402.57225-3.35803-7.44399-2.61394 2.55528 1.06554 3.73806c2.7571 1.3034 2.57285.77388 4.90643 1.15065z" fill="#e20909" stroke="#000" stroke-linecap="round" stroke-linejoin="round" stroke-width="2.674085"/><path d="m-415.84931 383.60755 5.5419-1.10317 1.6289 5.30033-3.2079 1.60904z" fill="#e20909" stroke="#000" stroke-linecap="round" stroke-linejoin="round" stroke-width="2.674085"/><path d="m-389.25143 378.68748c-.98885-3.54115-9.83127-4.15137-14.37322.23708-2.28045 2.20337-14.37611 8.01579-18.95539 1.5455-.95798-1.35357-1.55791-3.72978-1.80811-7.04077-2.58902-2.50313-4.19798-9.82512-.74357-11.57654 4.09689-2.07718 8.26261-2.92035 12.39392-4.38054-.033-2.50479-1.60821-6.74385 1.07904-7.48342 6.7898-1.86863 7.67179-3.96957 12.59071-6.20577 2.33122-1.0598 8.0937-2.23564 14.30397-1.47977 8.33718 1.71043 24.87239 2.93777 28.46246 8.35767-3.941 2.19981-16.31826-.80207-16.68226 6.77078 2.26641-8.32249 13.72805-4.18028 22.10576-6.23369 1.67386 1.68102-4.90908 6.48489-12.2354 7.57081-1.98213.29379-1.83788.83543-4.47796 4.59025 1.18205-2.33238 4.65797-4.55996 6.13763-4.26938 8.94558 1.75677 7.31709 8.35453 7.68533 10.27377.91311 4.7591 4.73299 8.31256 12.12417 3.22665-2.89683 4.30196-.58459 10.74857-12.42681 6.87432 6.49293 2.53817 8.25693 14.77069 8.00502 16.16269-.78814 4.35518 4.68477 9.68957 12.39398 8.9436-5.27765 8.51105-11.54501 4.12464-20.29354-1.45946 19.62757 10.22236-3.78726 36.18372 12.67128 44.00277-9.24029 3.69961-14.88791-1.09078-15.27232-9.80515.16923 15.94935 5.68828 13.8317.30234 23.38333-3.52119 6.24463-2.69149 14.66391 5.60393 14.29667-1.9973 5.69364-23.35458 5.8838-15.97547-21.26421-7.15264 19.77414 2.8088 20.46757-3.90057 31.0953-3.2156 5.0936.0198 16.34095 12.56548 12.31857-6.48682 9.79867-18.86018 8.60673-26.50942 1.25607-8.64327-8.30587 3.62438-23.99325-3.27754-35.39337 2.04702 9.06394-2.47693 25.21267-11.66975 28.0853-12.70536 6.58194-4.39452 22.61175 13.29514 18.58241-12.00817 19.00193-48.13811-1.31072-25.14714-28.44647-13.71254 11.2618-9.68858 27.91143-28.73795 33.29321-17.35877 4.90417-31.91555-19.65026-10.0841-21.97676-5.33651 5.31586-3.1931 9.20592 1.27584 8.9436 6.03911-.35451 9.57647-5.50197 9.56142-14.01929-.036-20.36701 12.78225-19.35174 18.32488-20.84254-26.41737 2.48872-18.6125 27.24899-51.54235 22.57729-11.28058-4.18733-16.02037-14.44702-7.21211-27.17963-1.32107 8.44196 7.68208 11.90122 14.64298 5.39047 16.46045-15.39592 24.33991-18.00514 37.3677-17.94524-16.31504.0751-36.22869.67295-34.03585-21.01318 2.94365 3.64398 4.66507 4.95272 8.49172 5.2543 6.12096.4824 3.1766-6.26876 26.09091-3.04095-20.23683-1.10783-30.44317-20.99012-9.3867-25.49514-13.22414 12.49111 4.90314 18.31663 13.20292 14.01929 7.66214-3.96719 11.54542-1.59138 14.79996.0546 10.90314 5.51409 25.28181-16.26413 23.69802-19.08304-13.93406 17.38016-14.21713 13.03805-20.61759 13.04441-4.0939-2.842-4.75047-5.38625-4.36768-11.56115 6.02798 2.05811 9.7531.11052 13.89272-.66786 3.82882-3.26081 8.1056-6.08949 8.91913-9.98956.9068-4.34754-1.00846-7.83179-2.25556-12.29778z" fill="#e20909" stroke="#000" stroke-linecap="round" stroke-linejoin="round" stroke-width="2.674085"/><path d="m-409.69827 357.78902c4.56634-2.91877 11.02494-3.48199 12.8105 3.05325l.88123 1.36836-1.64986-.60505c-.89673.85952-2.17779.88518-3.33073 1.06478l-1.3451.15394c-1.72942-1.22513-2.57336-3.3029-2.0807-4.8808.85298-2.73198-3.95946-.19784-5.28534-.15448z" fill="#e20909" stroke="#000" stroke-linecap="round" stroke-linejoin="round" stroke-width="2.674085"/><path d="m-405.29596 352.59675c-2.18343.9056-2.51087 3.29231-4.79004 3.8751-.98193.11693-1.87174-.0881-1.87174-.0881l-.3824 2.06965s1.12939.268 2.4554.11009c2.68535.0281 3.2946-2.83873 5.2932-4.00719 2.48953-.81564 5.57815-1.02582 7.48696 1.14491 1.9114 2.78447 2.74749 5.12834 4.05922 5.85293 1.91233 1.05637 4.13268.15988 6.19899-.0708l-2.04669-.32181c-2.24929-.57753-3.69871 1.19118-6.26586-4.58556-1.94921-4.38622-6.90199-4.96246-10.13704-3.97929z" fill="#000" stroke="none"/><path d="m-409.69827 357.78902c4.56634-2.91877 11.02494-3.48199 12.8105 3.05325l.88123 1.36836-1.64986-.60505c-.89673.85952-2.17779.88518-3.33073 1.06478l-1.3451.15394c-1.72942-1.22513-2.57336-3.3029-2.0807-4.8808.85298-2.73198-3.95946-.19784-5.28534-.15448z" fill="#e20909" stroke="#000" stroke-linecap="round" stroke-linejoin="round" stroke-width="2.674085"/></g><use height="100%" transform="translate(0 145)" width="100%" xlink:href="#b"/><g id="c" stroke="#000" stroke-linecap="round" stroke-linejoin="round" stroke-width="5.10408" transform="matrix(.24490125 0 0 .244903 310.26986 302.05899)"><path d="m46.888115 258.05508c-7.078585.0646-13.598783 6.95176-15.109881 11.05493 7.645878-3.03609 12.880464-1.62303 17.316429 3.02401l11.340704-7.97521s-6.040259-5.27696-12.123905-6.03575c-.475458-.0593-.95144-.0723-1.423348-.0679zm-21.2881 32.76195c-3.850928.0207-9.908703.66602-14.834717 3.93657-7.7215562 5.1266-9.87834751 16.77145-9.1252361 19.10711 7.6051657-7.90033 13.3558621-10.24069 27.4522781-7.28084l.324575-15.57023s-1.506343-.20503-3.816901-.19256zm3.564266 28.42812s-12.373666 3.95288-15.372072 13.76892c-3.198208 10.47015 3.475552 18.71842 6.551806 20.3412 1.364655-7.32571 2.97891-17.82305 17.359459-20.7149zm18.090712 19.982c-2.202972 4.26871-6.228992 10.67123-3.761987 18.33437 3.005181 9.33483 14.729675 11.55934 18.036547 11.78663-5.708727-9.73982-3.891994-16.53446.713853-25.95687zm280.883517 163.74541c-1.04761-.022-2.09758.0446-3.18008.24436-7.88176 1.45498-12.92997 10.75698-13.48017 14.52877 7.62034-4.89308 12.73638-5.26133 20.87601 3.14535 2.59709-3.0538 6.46741-7.25248 10.35997-11.49759-1.02649-1.28396-7.2425-6.26649-14.57573-6.42089zm-17.04707 22.47166c-2.32566-.11339-4.97914.33958-7.65565 1.78422-9.97766 5.38545-8.90659 18.20226-8.39774 19.80545 8.85172-10.46833 14.74473-10.38623 22.30181-2.06576l1.51403-16.51211c-.88203-1.09285-3.88634-2.82289-7.76245-3.0118zm10.43914 25.49082s-10.01042 1.21433-12.92831 13.1823c-2.91472 11.95494 5.02302 17.38979 7.11586 18.5092.31687-9.18995 4.88382-16.8439 15.83328-19.26328zm22.35839 13.80549c-2.40272 1.73589-7.35815 4.31094-7.13297 13.26244.24221 9.6277 8.59192 14.26216 12.23232 14.65347-3.36073-9.01279-.0913-15.69134 5.80593-19.77309zm-255.789633-136.642c-7.418292.0293-12.699231 5.55177-13.315073 6.63037 13.627801.89189 14.274404 6.256 17.936216 15.80011 5.195912-3.7759 9.78201-7.01237 12.78507-8.7488.26331-2.20256-3.0216-8.70164-10.739389-12.1871-2.360109-1.06585-4.589698-1.50278-6.666824-1.49458zm-16.613352 21.96432c-1.514323-.0285-3.057165.1181-4.612318.53242-11.379938 3.03184-11.21406 11.6985-11.376306 14.58137 12.600077-6.12654 17.230346.001 24.527834 6.05437l6.128772-15.84614c-2.24941-1.57029-8.105895-5.19645-14.667982-5.32202zm15.724586 31.59761s-9.97129-4.10173-17.259566.0539c-7.85754 4.48022-7.252313 15.02232-5.761472 18.6437 6.678642-9.77466 15.414038-7.89484 21.938119-3.30139zm27.964459 20.27824c2.05152 12.8118-3.03088 14.86184-11.88286 15.41078 3.00395 2.75658 13.06423 7.34644 19.72536 3.82911 7.31884-3.8646 9.18263-15.33456 8.45517-15.62604zm-68.397233-467.424434c-10.480195-.06305-16.358119 7.963615-17.923402 10.887406 18.684547-2.35428 16.930902 3.076244 20.080524 14.234403l16.320386-6.360864c-1.317517-5.856034-3.645798-15.366915-12.185331-17.826304-2.259584-.650761-4.351399-.922965-6.292177-.934641zm39.250068 1.434913c-3.519069-.157468-6.993249.765481-9.520016 2.514873 7.230892 2.786102 11.175722 5.985715 7.226676 17.961408l13.590927 9.537884c3.550998-4.08398 7.410348-13.527457.717884-23.527708-2.864555-4.28038-7.490958-6.284005-12.015471-6.486457zm-62.443742 23.34446c-6.249948-.344699-13.8471197 3.492322-17.3092782 18.708132 16.5907832-11.886703 16.3597272-.032237 24.3149952 8.089517l11.473472-18.465413s-6.141039-4.590812-14.41873-7.518176c-1.231108-.435375-2.618164-.734514-4.060459-.81406zm32.306946 61.501901c-7.093572 10.85924-16.20678 11.33612-27.922404 5.35822 7.015166 22.30567 24.173656 22.50563 40.026829 10.52282z" style="fill:#e20909;fill-rule:evenodd;stroke:#000;stroke-width:5.10408;stroke-linecap:round;stroke-linejoin:round"/><path d="m382.33141 373.30069c7.44178-.31418 15.48357-8.5507 28.25933 5.76503 2.65795-5.35981 2.39143-12.27186-3.50558-16.42049 8.67772-5.63218 17.99338-20.17639 20.6105-28.9045 3.41002-11.37244 5.56748-24.66605 14.58985-27.95596 4.78675-1.74548 9.26813 1.69463 8.85606 7.57927-.89447 12.77349-5.32241 10.02586-10.01454 27.26987-1.76179 6.47475 1.71644 16.63251 16.69407 14.39093-6.33998-2.92583-6.67509-6.7902-5.99075-11.89758 1.1881-8.86717 16.61773-19.25156 18.23136-33.81778 1.89806-17.13365-12.10051-24.84308-19.04675-25.5053-9.30094-.88671-20.63428 4.96871-27.48325 16.58892-3.61897-16.92251 8.21935-33.38198 21.05557-41.254 10.75545-6.59597 22.97091-12.36926 28.95655-21.87147 6.74863-10.71352 5.39091-24.19448-1.53251-30.83599-.35355 6.40809-4.84112 17.17118-18.27866 24.06171-16.31202 8.36462-32.08182 13.16456-45.2538 37.00218-2.76393-42.64828 42.96851-59.27094 61.96887-72.47447 23.58219-16.38756 15.87991-52.09645 8.72205-56.97138.41431 5.97983.66186 15.34189-6.4631 26.41451-8.24138 12.80773-22.65155 18.61379-40.03945 28.18159-17.29236 9.51526-31.64803 24.71613-38.45632 40.66719-1.87709-10.76557 6.09491-26.35977 16.13609-37.28036 10.40033-11.31115 22.82493-21.22726 29.89086-27.21748 14.07384-11.93133 34.57669-28.44665 36.7047-64.66093 1.50178-25.46925-11.17136-43.30419-28.93824-50.74816-10.41978-4.36556-25.69505-5.01936-36.21395-2.66055-5.27752 1.18344-10.53867 3.00398-15.47873 5.97313-3.47827 2.09055-9.47957.80402-8.8759-5.26669.71134-7.15379 10.92547-7.68136 12.01335-16.06494.89742-6.91594-4.3595-12.47604-9.92251-15.2266 1.39234 4.23625-.11741 9.15148-3.03635 14.05438-3.80445 6.39032-12.42016 5.70973-13.54203 17.80092-.55593 6.04755 3.47731 12.8652 9.20015 14.55762.67842.4149 1.81624 1.32915 1.33266 1.99276-6.3161 8.6678-7.45819 20.13495-6.8184 28.08741 1.06856 13.28013 5.6613 17.96105 5.72057 30.25952.0186 3.83334.0132 14.8871-4.59827 22.17358-5.68453 8.98203-10.55054 12.54123-15.96783 15.37081 7.643.47959 15.81348-1.29359 21.53229-3.51267 10.57067-4.10171 19.54133-17.16129 21.3252-25.81949 1.18781-5.76506.9201-11.1544.16274-16.40466 5.17446 1.75032 14.18531 2.00002 20.48892-2.17585 6.47284-4.28797 10.05703-13.55229 5.2966-21.63188-1.64412 8.1883-7.11614 11.15854-15.33057 11.48449-7.81695.31019-14.06495-4.57279-14.74735-13.06258-1.00585-12.51308 9.6323-21.62964 24.25544-21.80341 19.37149-.23021 29.89592 13.99524 28.86799 32.60918-1.03033 18.65773-10.27015 32.39101-23.33416 43.49622-11.22378 9.54089-23.03466 18.80896-34.71486 30.40316-9.10976 9.04269-27.05546 28.21263-27.65722 53.63025-.44628 18.83526 5.0321 34.06611 13.60335 47.78861 8.57119 13.72258 13.64843 25.15507 17.30492 35.79589 4.39492 12.79026 2.33555 30.24448-10.05154 35.13943-12.83058 5.07025-30.24839-2.61161-36.43087-19.35145-2.19915 12.23261-5.19869 37.53404 7.18678 36.58644 7.49976 2.58311 14.25528 6.03057 22.75669 5.67162z" style="fill:#2b5df2;fill-rule:evenodd;stroke:#000;stroke-width:5.10408;stroke-linecap:round;stroke-linejoin:round"/><g stroke="#000" stroke-linecap="round" stroke-linejoin="round" stroke-width="5.10408"><path d="m196.10277 331.94571c-23.28256-.009-37.71561 15.53662-40.6994 32.88207-1.28064 7.44469-2.49078 12.53923-5.971 15.46939-8.53659 7.18737-22.25816 8.70876-23.53675 8.22974 8.19927 9.76956 15.45244 13.04041 26.38867 10.66832-2.27819 12.02671 8.78654 26.94649 14.50151 39.26194 1.92952 4.15804-7.76546 7.08864-19.41769 9.08881-3.79197.65094-11.23 5.32146-14.87405 6.33728-3.77416 1.05208-9.47386.68495-11.66268-.66792-2.26255-1.39845-10.42493-10.6004-16.62592-12.63747-5.77037-1.89562-12.99472-.80906-14.33667 3.8912-2.13753 7.49966 7.83299 10.49934 9.16243 13.15089 1.28572 2.56441-.92492 4.61652-2.79441 3.5406-2.218-1.27648-9.36882-9.22104-13.7878-7.81768-3.32975 1.05742-6.07142 4.04424-6.90959 12.31734-.71044 7.01234 10.76284 9.1539 15.10162 9.48539 3.53233.26987 3.07213 3.76712.94363 4.43157-2.29.71489-12.29567-5.27899-12.86444-.52744-.56876 4.75156-1.31345 15.1074 4.96408 18.7424 4.93549 2.85786 23.49026-2.56915 25.61552-3.10462 2.53054-.63759 5.00133-1.38092 5.82466-.61954 5.59649 5.17535-5.85374 7.02313-1.97663 11.82846 4.11998 5.10636 10.07517 5.57637 15.56656 6.48103 11.28327 1.85879 5.55909-19.52362 8.05427-19.65459 5.38451-.74811 7.49285-1.57138 11.83332 1.93213 4.34047 3.50352 10.86126 14.3362 19.99976 17.1604-.79661-8.28214-.14074-15.73145 2.65769-21.2978 3.17439 9.5057 14.61636 14.21669 26.23636 17.24508-5.8156-6.79702-7.40448-19.13005-5.54343-21.01175 7.63832 8.50866 14.82049 11.60632 29.24895 11.19335-4.29519-3.1898-6.49132-12.49805-5.54264-15.1163 1.45534-4.01652 4.60325 2.97771 8.47202-5.18283 2.43883-5.14425-1.49573-11.34471-3.12637-14.55059-7.47826-14.70252-8.60907-48.74557 25.93179-56.78479 18.78561-4.37227 47.17369-15.28759 49.63102-18.37807 19.58438-24.63052 1.50447-45.44216-8.59998-57.38372-25.5632 12.19957-62.48074 1.80842-91.86441 1.39772z" style="fill:#2b5df2;fill-rule:evenodd;stroke:#000;stroke-width:5.10408;stroke-linecap:round;stroke-linejoin:round"/><path d="m203.34783 451.745s6.2763 8.74934 1.51199 17.9677c-4.96807 9.61261-16.37799 3.97068-16.37799 3.97068" style="fill:#2b5df2;fill-rule:evenodd;stroke:#000;stroke-width:5.10408;stroke-linecap:round;stroke-linejoin:round"/></g><path d="m98.500709 125.34746c.88889 5.2289 4.910771 12.55632 3.959011 18.97791 3.50256-3.89576 6.61747-8.7125 6.65116-13.63794 6.55475 9.62818.39257 24.3043 1.84003 35.24775 2.62357-4.04816 9.27731-10.23654 10.46505-15.43766 6.78129 12.0134-6.142 15.90635 2.69376 40.02754 1.65378-9.10276 7.09173-16.96108 9.13492-23.27594 3.32446 16.80134 20.52506 26.67692 29.47706 23.12148 23.27955 25.7437 47.76019 12.99651 44.11117-16.76576 0 0-23.47244-42.40815-28.92659-45.78872-5.92248-3.67085-13.33339-6.81712-21.86029-11.33419-9.62392-5.09821-17.514-9.17816-25.14265-15.16679-7.62865-5.988662-11.52232-11.601098-16.54382-15.833403-7.06935-5.958319-11.99981-12.81212-12.41068-16.147276-.50275-4.080989 3.37322-5.50043 4.31579-12.122321 1.12156-7.879327-7.502758-15.531612-14.804024-13.781373-4.162382.997795-3.978014 8.880724-6.125479 10.644356-.506187.415712-1.138493.596782-1.982763.422568-4.426031-.913308-1.888526-13.769181-8.913975-13.698927-7.025459.07025-12.420462 2.647279-15.639818 9.805612-2.587905 5.754282 8.236187 8.657286 8.895094 11.860954.147688.718075-1.291513 1.893496-2.031211 1.935404-.488313.02766-8.665811-7.470167-14.389728-5.030714-4.460463 1.900987-8.996275 7.679584-6.823204 15.007294 1.879055 6.336273 10.44943 6.103221 14.582211 6.208524 4.90019.124857 16.887848 13.111791 16.518836 19.431152.140507 5.05833-7.503884 3.68389-8.609232 9.58684-1.417445 7.56966 5.048929 15.39893 11.485448 13.88352 4.81575-1.13382 9.536236-7.90739 11.73672-8.29539 5.372736-.46635 7.351603 4.3497 8.337204 10.1555z" style="fill:#2b5df2;stroke:#000;stroke-width:4.331086;stroke-linecap:round;stroke-linejoin:round;fill-rule:evenodd" transform="matrix(1.17469 .09537 -.09538 1.17453 -19.84846 -9.50878)"/><path d="m237.0441 320.23703c15.17041 5.69924 28.03896 19.75064 29.70305 29.84924-8.74164 17.42545-2.97443 25.21626 9.51898 23.13147 10.19595-1.69622 10.2128-9.837 7.52724-19.22928-2.39599-8.37952-6.04209-14.04004-13.80464-20.03355-10.13587-7.82599-28.58771-14.48447-32.94463-13.71788z" style="fill:#2b5df2;fill-rule:evenodd;stroke:#000;stroke-width:5.10408;stroke-linecap:round;stroke-linejoin:round"/><g stroke="#000" stroke-linecap="round" stroke-linejoin="round" stroke-width="5.10408"><path d="m375.92248 546.08868c5.57959-18.31752 25.27069-5.71075 35.48774-20.63388-6.20825-.40291-13.61889-4.89916-15.69674-11.56905 16.19384.48409 23.5066-4.59036 31.82926-11.65927-6.5203.0385-16.14326-1.58827-17.50881-11.004 7.79732-.15487 24.12809-.22222 33.10275-14.12018-15.8339 2.64276-23.53791-2.61595-22.80832-7.16337 2.1566-13.44199 10.01303-12.71879-.64443-22.55448-2.99449-2.76359-15.7134-5.22967-14.67705-12.07315.54964-3.62949 11.06268-10.12979 16.1846-12.95927-3.27955-.36039-11.59365-4.68273-19.18435-2.56233-7.5907 2.12041-14.35669 3.06423-25.69271-8.74253-5.21236-5.45194-7.78018-6.89191-14.02763-19.67755-1.25584-2.57012-7.76857-24.2848-5.59192-23.88781 7.41792-10.16624.50453-25.85202-4.21887-37.51653-4.59906-12.44295-8.66962-25.01533-17.65673-38.04297-6.90327-10.00692-25.29795-27.11166-26.28584-40.50653-1.29164-17.36215-1.61972-35.89657-.54643-44.92719 2.94094-24.74493 3.97729-29.44587-19.4588-37.41198-13.85462-4.70927-61.97863-17.06553-84.7589 8.1367-11.63948 12.87695-24.16832 12.01357-34.29254 29.20975-10.12421 17.19618-10.35321 11.72369-19.12153 19.92872s-16.70744 14.57234-19.2186 16.2c-5.02233 3.25532-6.79144 3.90547-15.24264 10.32588-8.4512 6.4204-15.998969 12.42078-17.407569 13.99608-2.817199 3.15058-17.899026 9.07261-21.260151 8.68862-2.073807-.23693-7.977765-10.42379-12.405492-11.24773-5.549882-1.03277-18.6207 2.88153-18.774635 9.93457-.08246 3.77802 10.073771 7.36462 8.467369 11.60076-1.09346 2.88348-9.094149 5.73704-12.643155 4.92053-2.028488-.4667-7.881682-3.86847-12.687447-2.57805-8.979281 2.41108-11.717322 15.37674-6.395568 20.42909 2.705097 2.56815 13.234968-.58314 14.816529.33676 1.792408 1.04255 2.940223 1.86273 1.979019 3.88953-1.042705 2.19871-14.077561 1.61189-15.721727 4.47568-5.59818 9.75086 2.368907 23.65464 12.560733 19.2234 3.423315-1.48841 6.697199-3.98676 8.988738-5.65251 2.033495-1.47798 3.926899.37699 4.132399 1.49242.467818 2.53912-8.933368 8.47738-7.675679 12.32909 2.419005 7.4083 18.165015 9.34093 21.993928 3.15599 2.97136-4.79971 9.017485-16.18217 10.154532-17.72748.568534-.77266 1.451254-2.50388 8.496147-4.38818 17.577449-4.23013 23.447039 3.42305 29.831399 18.28724 5.72142-4.83465 14.74934-19.11248 10.1332-26.92995 6.53276 6.90996 17.52392 14.78029 26.9712 15.76964-3.80518-10.48099 1.09715-19.30565 2.60746-22.89489 6.03646 6.25891 22.33659 12.92707 34.00639 10.4348-10.03795-6.28478-15.7656-17.63603-4.52652-22.93392 11.23909-5.29788 14.10321-8.35164 16.68373-18.30575 2.58051-9.95411 15.50567-6.83703 20.40988.19309 4.9042 7.03013 6.87001 9.6283 12.5607 16.0325 6.12286 6.89057 14.35784 13.66897 19.74311 17.83606 6.08528 4.70874 11.74829 9.86708 16.8617 17.31215 6.55009 9.53687 9.63556 20.32958 9.29369 33.45234-1.49392 12.64507 4.15094 23.82648 2.25836 36.14519-1.13486 4.67846-7.4665 11.44965-1.34832 23.44151s7.83555 36.76053-.36941 45.52915c21.61465-1.07899 30.63038-19.65886 27.17675-35.8946 8.24864 7.00782 13.86557 8.8756 20.55821 14.89739 2.53522 2.28109 14.02293 13.06978 16.8949 15.32677 5.85424 5.71954 5.06211 4.72034 14.09874 11.78368.64835 1.27805 2.29328 10.00348 2.2859 12.25244-.002.65051.35602 5.85018-1.48929 11.81912-1.6328 5.28155-4.65781 11.19381-7.75967 13.10842-3.19284 1.97078-4.08637-5.84543-7.761-5.21555-4.86086.83322-14.75715 8.12097-13.43694 12.81041 1.2843 4.56188 12.62054 2.84065 8.44532 5.15052l-5.33859 2.9535c-3.28181 1.8156-4.35814-2.61619-11.30273-1.54592-8.53447 1.31527-10.82332 11.84997-6.16076 17.55562 3.06736 3.75358 9.62749 1.38319 9.62749 1.38319 7.28841-1.68211 9.7887.93558.5954 3.32108 0 0-8.87263 2.4843-7.76469 9.51939.75573 4.79868 7.39842 9.86757 11.01468 9.25608 4.79923-.81154 10.17432-3.85179 11.73817-6.58428 2.93313-5.12503 5.35865-2.04501 3.29529 2.03451-1.17228 2.31771-3.19247 7.26746.10769 9.77566 4.02219 3.05696 13.67689 1.31167 16.68837-1.60212 4.61104-4.46143 3.94627-11.59525 2.81815-13.63542 7.64528-2.36032 11.70502-7.11896 13.96256-11.5066z" style="fill:#2b5df2;fill-rule:evenodd;stroke:#000;stroke-width:5.10408;stroke-linecap:round;stroke-linejoin:round"/><path d="m395.03897 449.49761s10.04425.70486 14.03077 10.89496c4.157 10.6259-6.58864 16.28535-6.58864 16.28535" style="fill:#2b5df2;fill-rule:evenodd;stroke:#000;stroke-width:5.10408;stroke-linecap:round;stroke-linejoin:round"/><path d="m100.92877 310.30778s61.87951-19.78687 101.21665-61.47879" style="fill:#2b5df2;fill-rule:evenodd;stroke:#000;stroke-width:5.10408;stroke-linecap:round;stroke-linejoin:round"/></g><g stroke="#000" stroke-linecap="round" stroke-linejoin="round" stroke-width="5.10408"><g fill="#fcef3c" stroke="#000" stroke-linecap="round" stroke-linejoin="round" stroke-width="5.10408"><path d="m318.73852 150.2645c-7.93442.23895-15.58694.48326-22.24297-1.62967-6.20014-1.96821-14.92829-.94152-21.61337 2.34223-10.75456 5.28269-17.63205 9.15348-29.36013 9.38071-9.87627.19136-13.65969-5.13279-13.46928-15.96275 2.91738 5.46765 6.72038 7.44433 10.06341 7.46167 4.30082.0223 11.6565-2.0068 17.09386-5.60432 28.14959-18.62465 48.98279-15.29393 59.52848 4.01213z" style="fill:#e00808;fill-rule:evenodd;stroke:#000;stroke-width:4.782319;stroke-linecap:round;stroke-linejoin:round" transform="matrix(1.03484 .29274 -.16123 1.05513 -31.95674 -114.95021)"/><path d="m246.65625 96.875c-1.23904 3.21457-.77199 13.10696 5.625 16.09375.86096-5.64452 3.42933-12.22234 5.375-15.59375zm10.51251 36.50062c-.71633 3.47468.37801 7.84627 2.03125 10.5l7.5625-1.9375c-3.92913-2.0289-7.45461-5.09122-9.59375-8.5625z" style="fill:#2b5df2;fill-rule:evenodd;stroke:#000;stroke-width:5.10408;stroke-linecap:round;stroke-linejoin:round" transform="matrix(.99968753 .02499687 -.02499687 .99968753 -45.039529 -11.671505)"/><path d="m371.21891 274.33981c-3.63616-3.97595-4.20247-10.72779-3.31996-16.50133 1.20339-7.8727 5.73826-14.84059 6.23408-23.44866.57067-10.06872-4.70956-11.67356-4.67522-16.59978 5.17561 6.62108 16.99273 5.38232 19.13052-4.26509-5.33275.0595-10.57868-2.68627-13.00792-7.31658-4.37481-8.33865 2.63385-12.52387 2.5388-21.23391-.11061-10.2752-6.74169-13.74636-7.77303-17.94628 5.23451.76199 10.87845-2.97213 10.7996-8.34095-2.50511 1.39032-5.33214 1.12164-7.45386-1.5469-2.54437-3.20012-1.64188-8.06218-2.89951-11.7715-2.33526-6.88761-7.87838-6.9293-9.24575-11.23207 5.68115 1.86232 12.11869-3.04907 11.21199-9.83616-1.76068 1.56755-4.26936 2.12464-6.57527 1.13479-4.14726-1.78027-2.81917-6.61393-4.86526-10.54379-1.48187-2.8462-8.05979-5.38481-8.89896-8.61272 4.7476.54446 8.68359-2.7944 7.9079-8.40936-2.21438 1.4199-7.70876 1.474255-9.80819-.357165-9.82575-8.57145-16.92602-15.822536-27.79367-21.249275-8.8104-4.399458-29.95373-5.082891-46.03153-3.604527-11.84919 1.089541-21.0464 7.687984-27.68585 12.480591-5.78662 4.176991-1.37012 6.835454.73105 9.659047-5.46779.159383-10.19241-.06064-14.96713 2.689186-2.75446 1.586327-6.19406 4.654123-5.63309 6.253993.32419.92462 2.88209 3.70087 4.48972 2.29694.44884 3.70995.0346 5.91932.73007 9.73321.91465 5.01603 4.50233 9.1898 8.76379 9.60822 11.30044 1.10956 21.19388-.98531 30.62876-6.34067 12.77404-7.25071 18.21971-.22613 20.56751 7.88964 2.36704 8.18234 1.20076 18.94612-5.32201 26.56498-3.38632 3.95536-10.03439 8.36356-17.03916 9.11664-3.93175.42269-7.99927-.94473-11.19253 1.07919-1.62809 1.0319-1.20348 6.84454-1.24855 10.06893-.0353 2.51693 2.05727 3.57598 4.76113 3.81103 6.26755.54487 5.66526 7.09181 9.42397 7.54546-.011-1.68603.57753-8.55774 2.05515-8.82724 5.93891-1.08316 19.38978-4.87515 19.31098-2.55611-.20178 5.83357-6.26036 9.60332-20.59093 14.52177-11.11721 3.81558-34.25219.54006-35.03739-26.1383-13.70286 10.44207-14.69237 35.72095-1.38178 41.42041-4.4644.0723-9.25155 1.14191-14.41604 2.81956-7.6738 2.49278-17.03563-2.61207-23.06444-8.07249.50846 19.00014 5.47419 29.0394 15.8261 33.71717 12.30163 5.55879 19.8832 3.08788 27.68272 3.29605-5.88819 4.22165-9.56886 10.88357-14.59537 17.12956-5.64782 7.01802-14.41539 13.28069-25.06249 13.48325 5.74028 8.32916 14.99901 12.56877 25.51747 12.75811 14.19297.25802 25.1358-5.2541 33.68466-13.6164-.28951 9.11278-8.97024 13.61576-9.1422 24.60333-.15365 9.81864 5.46127 17.78262 15.42757 18.61396-4.94154-14.9571 9.83001-21.53613 18.45193-26.10019 8.15941-4.31922 15.02143-9.71544 20.17096-17.77925 2.27399 8.93812-8.88267 17.05111-1.37227 29.56367 5.05031 8.41396 14.83049 11.01093 24.85395 9.56454-7.04672-3.39664-9.85378-12.0941-6.56321-20.68333 4.72525-12.33415 12.60485-14.08366 19.02673-28.55501 1.70365-3.83906 2.40406-9.89684 2.83351-15.65585 4.40015 5.82673 3.17654 11.87196 2.67147 17.10813-.94882 9.83655 8.48631 21.43075 21.23048 18.60953z" style="fill:#2b5df2;fill-rule:evenodd;stroke:#000;stroke-width:4.782325;stroke-linecap:round;stroke-linejoin:round" transform="matrix(1.05493 .16125 -.16123 1.05513 -37.490074 -78.73753)"/><g stroke="#000" stroke-linecap="round" stroke-linejoin="round" stroke-width="5.10408"><path d="m306.52204 78.102415c-3.74068-14.827748 9.99923-18.072256 19.94382-23.831648-.26946 9.856206 2.07809 22.369124-4.05954 26.268137" style="fill:#fff03c;fill-rule:evenodd;stroke:#000;stroke-width:4.782325;stroke-linecap:round;stroke-linejoin:round" transform="matrix(1.05493 .16125 -.16123 1.05513 -37.490074 -78.737527)"/><path d="m239.2893 75.683907s1.76183 4.164338 4.64484 1.761835m13.37781-9.486166c4.78105 6.825992 8.26432 2.472551 12.49155.43929 14.90499-8.340841 18.08618-2.264282 25.57688 2.212118m-2.97635 87.942826c17.46552 1.10666 24.7078-20.37059 24.7078-20.37059s7.90245 10.32513 3.33442 18.74416c9.80362-6.8894 15.18842-20.65394 5.98986-39.20038 5.70077.87138 11.35181 6.8408 12.28693 10.26593 3.70875-13.3728.46185-31.657453-12.23585-41.62147" fill="none" stroke="#000" stroke-linecap="round" stroke-linejoin="round" stroke-width="5.10408" transform="translate(-46.629309 -6.402298)"/></g></g><g stroke="#000" stroke-linecap="round" stroke-linejoin="round" stroke-width="5.10408"><path d="m216.20891 65.947309c4.66241 3.095517 8.18291 4.850739 12.57505 3.622242 7.13802-1.76843 9.43959-5.7979 12.7246-5.415123-.70806-7.91465-9.45045-7.319973-14.4114-3.621218-.59021.352976.95152 4.00922 2.25888 7.084267-1.18139-.06185-4.62959-1.756757-4.93114-5.303545-1.90616 1.337781-4.67195 2.220351-8.21599 3.633377z" style="fill:#2b5df2;fill-rule:evenodd;stroke:#000;stroke-width:5.10408;stroke-linecap:round;stroke-linejoin:round"/><path d="m227.14835 63.051245c.59171.976289 2.60973 4.961262 2.20753 4.96126-.76868.274856-5.14098-3.759153-4.7792-4.84747.25772-.775269.53088-1.411001.93309-1.411001s1.21513.598536 1.63858 1.297211z" stroke="#000" stroke-linecap="round" stroke-linejoin="round" stroke-width="5.10408"/></g></g><g stroke="#000" stroke-linecap="round" stroke-linejoin="round" stroke-width="5.10408"><path d="m273.27707 53.09609c-1.55555-16.24839 13.46218-17.45627 24.88158-21.92966-1.87333 10.35614-1.41422 23.93744-8.51761 27.06175" style="fill:#2b5df2;fill-rule:evenodd;stroke:#000;stroke-width:5.10408;stroke-linecap:round;stroke-linejoin:round"/><path d="m296.41288 41.89166s-13.88716-2.79663-16.07225 12.7402" fill="#2b5df2" stroke="#000" stroke-linecap="round" stroke-linejoin="round" stroke-width="5.10408"/></g></g><use height="100%" transform="translate(135 -.000007)" width="100%" xlink:href="#c"/><g stroke="#000" stroke-linecap="round" stroke-linejoin="round" stroke-width="5.10408" transform="matrix(.24490125 0 0 .244903 375.26986 442.05899)"><g fill-rule="evenodd"><path d="m46.888115 258.05508c-7.078585.0646-13.598783 6.95176-15.109881 11.05493 7.645878-3.03609 12.880464-1.62303 17.316429 3.02401l11.340704-7.97521s-6.040259-5.27696-12.123905-6.03575c-.475458-.0593-.95144-.0723-1.423348-.0679zm-21.2881 32.76195c-3.850928.0207-9.908703.66602-14.834717 3.93657-7.7215562 5.1266-9.87834751 16.77145-9.1252361 19.10711 7.6051657-7.90033 13.3558621-10.24069 27.4522781-7.28084l.324575-15.57023s-1.506343-.20503-3.816901-.19256zm3.564266 28.42812s-12.373666 3.95288-15.372072 13.76892c-3.198208 10.47015 3.475552 18.71842 6.551806 20.3412 1.364655-7.32571 2.97891-17.82305 17.359459-20.7149zm18.090712 19.982c-2.202972 4.26871-6.228992 10.67123-3.761987 18.33437 3.005181 9.33483 14.729675 11.55934 18.036547 11.78663-5.708727-9.73982-3.891994-16.53446.713853-25.95687zm40.844344 88.87138c-7.418292.0293-12.699231 5.55177-13.315073 6.63037 13.627801.89189 14.274404 6.256 17.936216 15.80011 5.195912-3.7759 9.78201-7.01237 12.78507-8.7488.26331-2.20256-3.0216-8.70164-10.739389-12.1871-2.360109-1.06585-4.589698-1.50278-6.666824-1.49458zm-16.613352 21.96432c-1.514323-.0285-3.057165.1181-4.612318.53242-11.379938 3.03184-11.21406 11.6985-11.376306 14.58137 12.600077-6.12654 17.230346.001 24.527834 6.05437l6.128772-15.84614c-2.24941-1.57029-8.105895-5.19645-14.667982-5.32202zm15.724586 31.59761s-9.97129-4.10173-17.259566.0539c-7.85754 4.48022-7.252313 15.02232-5.761472 18.6437 6.678642-9.77466 15.414038-7.89484 21.938119-3.30139zm27.964459 20.27824c2.05152 12.8118-3.03088 14.86184-11.88286 15.41078 3.00395 2.75658 13.06423 7.34644 19.72536 3.82911 7.31884-3.8646 9.18263-15.33456 8.45517-15.62604zm-68.397233-467.424434c-10.480195-.06305-16.358119 7.963615-17.923402 10.887406 18.684547-2.35428 16.930902 3.076244 20.080524 14.234403l16.320386-6.360864c-1.317517-5.856034-3.645798-15.366915-12.185331-17.826304-2.259584-.650761-4.351399-.922965-6.292177-.934641zm39.250068 1.434913c-3.519069-.157468-6.993249.765481-9.520016 2.514873 7.230892 2.786102 11.175722 5.985715 7.226676 17.961408l13.590927 9.537884c3.550998-4.08398 7.410348-13.527457.717884-23.527708-2.864555-4.28038-7.490958-6.284005-12.015471-6.486457zm-62.443742 23.34446c-6.249948-.344699-13.8471197 3.492322-17.3092782 18.708132 16.5907832-11.886703 16.3597272-.032237 24.3149952 8.089517l11.473472-18.465413s-6.141039-4.590812-14.41873-7.518176c-1.231108-.435375-2.618164-.734514-4.060459-.81406zm32.306946 61.501901c-7.093572 10.85924-16.20678 11.33612-27.922404 5.35822 7.015166 22.30567 24.173656 22.50563 40.026829 10.52282z" fill="#e20909" stroke-width="5.10408"/><path d="m382.33141 373.30069c7.44178-.31418 15.48357-8.5507 28.25933 5.76503 2.65795-5.35981 2.39143-12.27186-3.50558-16.42049 8.67772-5.63218 17.99338-20.17639 20.6105-28.9045 3.41002-11.37244 5.56748-24.66605 14.58985-27.95596 4.78675-1.74548 9.26813 1.69463 8.85606 7.57927-.89447 12.77349-5.32241 10.02586-10.01454 27.26987-1.76179 6.47475 1.71644 16.63251 16.69407 14.39093-6.33998-2.92583-6.67509-6.7902-5.99075-11.89758 1.1881-8.86717 16.61773-19.25156 18.23136-33.81778 1.89806-17.13365-12.10051-24.84308-19.04675-25.5053-9.30094-.88671-20.63428 4.96871-27.48325 16.58892-3.61897-16.92251 8.21935-33.38198 21.05557-41.254 10.75545-6.59597 22.97091-12.36926 28.95655-21.87147 6.74863-10.71352 5.39091-24.19448-1.53251-30.83599-.35355 6.40809-4.84112 17.17118-18.27866 24.06171-16.31202 8.36462-32.08182 13.16456-45.2538 37.00218-2.76393-42.64828 42.96851-59.27094 61.96887-72.47447 23.58219-16.38756 15.87991-52.09645 8.72205-56.97138.41431 5.97983.66186 15.34189-6.4631 26.41451-8.24138 12.80773-22.65155 18.61379-40.03945 28.18159-17.29236 9.51526-31.64803 24.71613-38.45632 40.66719-1.87709-10.76557 6.09491-26.35977 16.13609-37.28036 10.40033-11.31115 22.82493-21.22726 29.89086-27.21748 14.07384-11.93133 34.57669-28.44665 36.7047-64.66093 1.50178-25.46925-11.17136-43.30419-28.93824-50.74816-10.41978-4.36556-25.69505-5.01936-36.21395-2.66055-5.27752 1.18344-10.53867 3.00398-15.47873 5.97313-3.47827 2.09055-9.47957.80402-8.8759-5.26669.71134-7.15379 10.92547-7.68136 12.01335-16.06494.89742-6.91594-4.3595-12.47604-9.92251-15.2266 1.39234 4.23625-.11741 9.15148-3.03635 14.05438-3.80445 6.39032-12.42016 5.70973-13.54203 17.80092-.55593 6.04755 3.47731 12.8652 9.20015 14.55762.67842.4149 1.81624 1.32915 1.33266 1.99276-6.3161 8.6678-7.45819 20.13495-6.8184 28.08741 1.06856 13.28013 5.6613 17.96105 5.72057 30.25952.0186 3.83334.0132 14.8871-4.59827 22.17358-5.68453 8.98203-10.55054 12.54123-15.96783 15.37081 7.643.47959 15.81348-1.29359 21.53229-3.51267 10.57067-4.10171 19.54133-17.16129 21.3252-25.81949 1.18781-5.76506.9201-11.1544.16274-16.40466 5.17446 1.75032 14.18531 2.00002 20.48892-2.17585 6.47284-4.28797 10.05703-13.55229 5.2966-21.63188-1.64412 8.1883-7.11614 11.15854-15.33057 11.48449-7.81695.31019-14.06495-4.57279-14.74735-13.06258-1.00585-12.51308 9.6323-21.62964 24.25544-21.80341 19.37149-.23021 29.89592 13.99524 28.86799 32.60918-1.03033 18.65773-10.27015 32.39101-23.33416 43.49622-11.22378 9.54089-23.03466 18.80896-34.71486 30.40316-9.10976 9.04269-27.05546 28.21263-27.65722 53.63025-.44628 18.83526 5.0321 34.06611 13.60335 47.78861 8.57119 13.72258 13.64843 25.15507 17.30492 35.79589 4.39492 12.79026 2.33555 30.24448-10.05154 35.13943-12.83058 5.07025-30.24839-2.61161-36.43087-19.35145-2.19915 12.23261-5.19869 37.53404 7.18678 36.58644 7.49976 2.58311 14.25528 6.03057 22.75669 5.67162z" fill="#2b5df2" stroke-width="5.10408"/><g fill="#2b5df2" stroke-width="5.10408"><path d="m196.10277 331.94571c-23.28256-.009-37.71561 15.53662-40.6994 32.88207-1.28064 7.44469-2.49078 12.53923-5.971 15.46939-8.53659 7.18737-22.25816 8.70876-23.53675 8.22974 8.19927 9.76956 15.45244 13.04041 26.38867 10.66832-2.27819 12.02671 8.78654 26.94649 14.50151 39.26194 1.92952 4.15804-7.76546 7.08864-19.41769 9.08881-3.79197.65094-11.23 5.32146-14.87405 6.33728-3.77416 1.05208-9.47386.68495-11.66268-.66792-2.26255-1.39845-10.42493-10.6004-16.62592-12.63747-5.77037-1.89562-12.99472-.80906-14.33667 3.8912-2.13753 7.49966 7.83299 10.49934 9.16243 13.15089 1.28572 2.56441-.92492 4.61652-2.79441 3.5406-2.218-1.27648-9.36882-9.22104-13.7878-7.81768-3.32975 1.05742-6.07142 4.04424-6.90959 12.31734-.71044 7.01234 10.76284 9.1539 15.10162 9.48539 3.53233.26987 3.07213 3.76712.94363 4.43157-2.29.71489-12.29567-5.27899-12.86444-.52744-.56876 4.75156-1.31345 15.1074 4.96408 18.7424 4.93549 2.85786 23.49026-2.56915 25.61552-3.10462 2.53054-.63759 5.00133-1.38092 5.82466-.61954 5.59649 5.17535-5.85374 7.02313-1.97663 11.82846 4.11998 5.10636 10.07517 5.57637 15.56656 6.48103 11.28327 1.85879 5.55909-19.52362 8.05427-19.65459 5.38451-.74811 7.49285-1.57138 11.83332 1.93213 4.34047 3.50352 10.86126 14.3362 19.99976 17.1604-.79661-8.28214-.14074-15.73145 2.65769-21.2978 3.17439 9.5057 14.61636 14.21669 26.23636 17.24508-5.8156-6.79702-7.40448-19.13005-5.54343-21.01175 7.63832 8.50866 14.82049 11.60632 29.24895 11.19335-4.29519-3.1898-6.49132-12.49805-5.54264-15.1163 1.45534-4.01652 4.60325 2.97771 8.47202-5.18283 2.43883-5.14425-1.49573-11.34471-3.12637-14.55059-7.47826-14.70252-8.60907-48.74557 25.93179-56.78479 18.78561-4.37227 47.17369-15.28759 49.63102-18.37807 19.58438-24.63052 1.50447-45.44216-8.59998-57.38372-25.5632 12.19957-62.48074 1.80842-91.86441 1.39772z"/><path d="m203.34783 451.745s6.2763 8.74934 1.51199 17.9677c-4.96807 9.61261-16.37799 3.97068-16.37799 3.97068"/></g><path d="m98.500709 125.34746c.88889 5.2289 4.910771 12.55632 3.959011 18.97791 3.50256-3.89576 6.61747-8.7125 6.65116-13.63794 6.55475 9.62818.39257 24.3043 1.84003 35.24775 2.62357-4.04816 9.27731-10.23654 10.46505-15.43766 6.78129 12.0134-6.142 15.90635 2.69376 40.02754 1.65378-9.10276 7.09173-16.96108 9.13492-23.27594 3.32446 16.80134 20.52506 26.67692 29.47706 23.12148 23.27955 25.7437 47.76019 12.99651 44.11117-16.76576 0 0-23.47244-42.40815-28.92659-45.78872-5.92248-3.67085-13.33339-6.81712-21.86029-11.33419-9.62392-5.09821-17.514-9.17816-25.14265-15.16679-7.62865-5.988662-11.52232-11.601098-16.54382-15.833403-7.06935-5.958319-11.99981-12.81212-12.41068-16.147276-.50275-4.080989 3.37322-5.50043 4.31579-12.122321 1.12156-7.879327-7.502758-15.531612-14.804024-13.781373-4.162382.997795-3.978014 8.880724-6.125479 10.644356-.506187.415712-1.138493.596782-1.982763.422568-4.426031-.913308-1.888526-13.769181-8.913975-13.698927-7.025459.07025-12.420462 2.647279-15.639818 9.805612-2.587905 5.754282 8.236187 8.657286 8.895094 11.860954.147688.718075-1.291513 1.893496-2.031211 1.935404-.488313.02766-8.665811-7.470167-14.389728-5.030714-4.460463 1.900987-8.996275 7.679584-6.823204 15.007294 1.879055 6.336273 10.44943 6.103221 14.582211 6.208524 4.90019.124857 16.887848 13.111791 16.518836 19.431152.140507 5.05833-7.503884 3.68389-8.609232 9.58684-1.417445 7.56966 5.048929 15.39893 11.485448 13.88352 4.81575-1.13382 9.536236-7.90739 11.73672-8.29539 5.372736-.46635 7.351603 4.3497 8.337204 10.1555z" fill="#2b5df2" stroke-width="4.331086" transform="matrix(1.17469 .09537 -.09538 1.17453 -19.84846 -9.50878)"/><path d="m237.0441 320.23703c15.17041 5.69924 28.03896 19.75064 29.70305 29.84924-8.74164 17.42545-2.97443 25.21626 9.51898 23.13147 10.19595-1.69622 10.2128-9.837 7.52724-19.22928-2.39599-8.37952-6.04209-14.04004-13.80464-20.03355-10.13587-7.82599-28.58771-14.48447-32.94463-13.71788z" fill="#2b5df2" stroke-width="5.10408"/><g fill="#2b5df2" stroke-width="5.10408"><path d="m434.83789 481.58398c-3.59423.1062-7.22329 1.0458-9.66406 3.7461-2.85053 3.1536-5.91901 2.9429-8.39844 7.1543-2.47943 4.21139-2.53622 2.87142-4.68359 4.88085-2.14738 2.00944-4.09205 3.56818-4.70703 3.9668-1.22998.79724-1.66272.95692-3.73243 2.5293-2.06971 1.57237-3.9187 3.04194-4.26367 3.42773-.68993.77159-4.38193 2.221-5.20508 2.12696-.50787-.058-1.9547-2.55213-3.03906-2.75391-1.35917-.25293-4.55996.70628-4.59765 2.43359-.0202.92525 2.46762 1.8024 2.07421 2.83985-.26779.70617-2.2285 1.40504-3.09765 1.20507-.49678-.11429-1.93049-.94688-3.10742-.63085-2.19904.59048-2.86971 3.76657-1.56641 5.0039.66248.62895 3.24158-.14325 3.62891.082.43896.25533.71977.45676.48437.95313-.25536.53847-3.44695.39435-3.84961 1.0957-1.371 2.38802.58018 5.79226 3.07617 4.70703.83838-.36451 1.63997-.97486 2.20117-1.38281.49801-.36196.9614.0921 1.01172.36523.11457.62184-2.18691 2.07624-1.8789 3.01954.59241 1.81431 4.44901 2.28619 5.38672.77148.72769-1.17546 2.20786-3.96335 2.48632-4.3418.13924-.18922.35478-.61274 2.08008-1.07422 4.30474-1.03597 5.74311.83824 7.30664 4.47852 1.40119-1.18402 3.61097-4.67923 2.48047-6.59375 1.59988 1.69227 4.29182 3.61903 6.60547 3.86133-.93189-2.56683.2688-4.72841.63867-5.60742 1.47834 1.53282 5.47018 3.167 8.32813 2.55664-2.45831-1.53916-3.85989-4.31972-1.10742-5.61719 2.75246-1.29747 3.45396-2.04658 4.08593-4.48438.63197-2.43779 3.797-1.67286 4.99805.0488 1.20104 1.7217 1.68251 2.35738 3.07617 3.92578 1.4995 1.68753 3.51513 3.34666 4.83399 4.36719 1.49029 1.15319 2.87858 2.41692 4.13086 4.24024 1.60412 2.3356 2.35911 4.97955 2.27539 8.19335-.36587 3.09682 1.01623 5.83468.55273 8.85157-.27793 1.14577-1.82843 2.80339-.33008 5.74023s1.91956 9.00293-.0898 11.15039c5.29345-.26425 7.50205-4.81288 6.65625-8.78906 2.0201 1.71624 3.39417 2.17173 5.0332 3.64648.62088.55865 3.43532 3.20117 4.13867 3.75391.70975.69342 1.01848.98053 1.41993 1.30664 4.23226-3.83406 8.44832-7.78662 12.64257-11.85547-1.64258.38546-3.23264.30828-5.72265-2.28515-1.27652-1.3352-1.90554-1.68712-3.43555-4.81836-.30756-.62943-1.9022-5.94879-1.36914-5.85157 1.81666-2.48974.12356-6.33082-1.0332-9.1875-1.12632-3.04731-2.12327-6.12589-4.32422-9.3164-1.69062-2.45073-6.19557-6.63948-6.4375-9.91992-.31633-4.25205-.39762-8.79228-.13477-11.00391.72024-6.06011.97586-7.21119-4.76367-9.16211-1.90857-.64874-6.47259-1.89045-11.09375-1.75391z" stroke-width="1.25" transform="matrix(4.0832785 0 0 4.0832493 -1532.3313 -1804.5135)"/><path d="m100.92877 310.30778s61.87951-19.78687 101.21665-61.47879" stroke-width="5.10408"/></g></g><g stroke-width="5.10408"><g fill="#fcef3c"><g fill-rule="evenodd"><path d="m318.73852 150.2645c-7.93442.23895-15.58694.48326-22.24297-1.62967-6.20014-1.96821-14.92829-.94152-21.61337 2.34223-10.75456 5.28269-17.63205 9.15348-29.36013 9.38071-9.87627.19136-13.65969-5.13279-13.46928-15.96275 2.91738 5.46765 6.72038 7.44433 10.06341 7.46167 4.30082.0223 11.6565-2.0068 17.09386-5.60432 28.14959-18.62465 48.98279-15.29393 59.52848 4.01213z" fill="#e00808" stroke-width="4.782319" transform="matrix(1.03484 .29274 -.16123 1.05513 -31.95674 -114.95021)"/><path d="m246.65625 96.875c-1.23904 3.21457-.77199 13.10696 5.625 16.09375.86096-5.64452 3.42933-12.22234 5.375-15.59375zm10.51251 36.50062c-.71633 3.47468.37801 7.84627 2.03125 10.5l7.5625-1.9375c-3.92913-2.0289-7.45461-5.09122-9.59375-8.5625z" fill="#2b5df2" stroke-width="5.10408" transform="matrix(.99968753 .02499687 -.02499687 .99968753 -45.039529 -11.671505)"/><path d="m371.21891 274.33981c-3.63616-3.97595-4.20247-10.72779-3.31996-16.50133 1.20339-7.8727 5.73826-14.84059 6.23408-23.44866.57067-10.06872-4.70956-11.67356-4.67522-16.59978 5.17561 6.62108 16.99273 5.38232 19.13052-4.26509-5.33275.0595-10.57868-2.68627-13.00792-7.31658-4.37481-8.33865 2.63385-12.52387 2.5388-21.23391-.11061-10.2752-6.74169-13.74636-7.77303-17.94628 5.23451.76199 10.87845-2.97213 10.7996-8.34095-2.50511 1.39032-5.33214 1.12164-7.45386-1.5469-2.54437-3.20012-1.64188-8.06218-2.89951-11.7715-2.33526-6.88761-7.87838-6.9293-9.24575-11.23207 5.68115 1.86232 12.11869-3.04907 11.21199-9.83616-1.76068 1.56755-4.26936 2.12464-6.57527 1.13479-4.14726-1.78027-2.81917-6.61393-4.86526-10.54379-1.48187-2.8462-8.05979-5.38481-8.89896-8.61272 4.7476.54446 8.68359-2.7944 7.9079-8.40936-2.21438 1.4199-7.70876 1.474255-9.80819-.357165-9.82575-8.57145-16.92602-15.822536-27.79367-21.249275-8.8104-4.399458-29.95373-5.082891-46.03153-3.604527-11.84919 1.089541-21.0464 7.687984-27.68585 12.480591-5.78662 4.176991-1.37012 6.835454.73105 9.659047-5.46779.159383-10.19241-.06064-14.96713 2.689186-2.75446 1.586327-6.19406 4.654123-5.63309 6.253993.32419.92462 2.88209 3.70087 4.48972 2.29694.44884 3.70995.0346 5.91932.73007 9.73321.91465 5.01603 4.50233 9.1898 8.76379 9.60822 11.30044 1.10956 21.19388-.98531 30.62876-6.34067 12.77404-7.25071 18.21971-.22613 20.56751 7.88964 2.36704 8.18234 1.20076 18.94612-5.32201 26.56498-3.38632 3.95536-10.03439 8.36356-17.03916 9.11664-3.93175.42269-7.99927-.94473-11.19253 1.07919-1.62809 1.0319-1.20348 6.84454-1.24855 10.06893-.0353 2.51693 2.05727 3.57598 4.76113 3.81103 6.26755.54487 5.66526 7.09181 9.42397 7.54546-.011-1.68603.57753-8.55774 2.05515-8.82724 5.93891-1.08316 19.38978-4.87515 19.31098-2.55611-.20178 5.83357-6.26036 9.60332-20.59093 14.52177-11.11721 3.81558-34.25219.54006-35.03739-26.1383-13.70286 10.44207-14.69237 35.72095-1.38178 41.42041-4.4644.0723-9.25155 1.14191-14.41604 2.81956-7.6738 2.49278-17.03563-2.61207-23.06444-8.07249.50846 19.00014 5.47419 29.0394 15.8261 33.71717 12.30163 5.55879 19.8832 3.08788 27.68272 3.29605-5.88819 4.22165-9.56886 10.88357-14.59537 17.12956-5.64782 7.01802-14.41539 13.28069-25.06249 13.48325 5.74028 8.32916 14.99901 12.56877 25.51747 12.75811 14.19297.25802 25.1358-5.2541 33.68466-13.6164-.28951 9.11278-8.97024 13.61576-9.1422 24.60333-.15365 9.81864 5.46127 17.78262 15.42757 18.61396-4.94154-14.9571 9.83001-21.53613 18.45193-26.10019 8.15941-4.31922 15.02143-9.71544 20.17096-17.77925 2.27399 8.93812-8.88267 17.05111-1.37227 29.56367 5.05031 8.41396 14.83049 11.01093 24.85395 9.56454-7.04672-3.39664-9.85378-12.0941-6.56321-20.68333 4.72525-12.33415 12.60485-14.08366 19.02673-28.55501 1.70365-3.83906 2.40406-9.89684 2.83351-15.65585 4.40015 5.82673 3.17654 11.87196 2.67147 17.10813-.94882 9.83655 8.48631 21.43075 21.23048 18.60953z" fill="#2b5df2" stroke-width="4.782325" transform="matrix(1.05493 .16125 -.16123 1.05513 -37.490074 -78.73753)"/></g><g stroke-width="5.10408"><path d="m306.52204 78.102415c-3.74068-14.827748 9.99923-18.072256 19.94382-23.831648-.26946 9.856206 2.07809 22.369124-4.05954 26.268137" fill="#fff03c" fill-rule="evenodd" stroke-width="4.782325" transform="matrix(1.05493 .16125 -.16123 1.05513 -37.490074 -78.737527)"/><path d="m239.2893 75.683907s1.76183 4.164338 4.64484 1.761835m13.37781-9.486166c4.78105 6.825992 8.26432 2.472551 12.49155.43929 14.90499-8.340841 18.08618-2.264282 25.57688 2.212118m-2.97635 87.942826c17.46552 1.10666 24.7078-20.37059 24.7078-20.37059s7.90245 10.32513 3.33442 18.74416c9.80362-6.8894 15.18842-20.65394 5.98986-39.20038 5.70077.87138 11.35181 6.8408 12.28693 10.26593 3.70875-13.3728.46185-31.657453-12.23585-41.62147" fill="none" stroke-width="5.10408" transform="translate(-46.629309 -6.402298)"/></g></g><g><path d="m216.20891 65.947309c4.66241 3.095517 8.18291 4.850739 12.57505 3.622242 7.13802-1.76843 9.43959-5.7979 12.7246-5.415123-.70806-7.91465-9.45045-7.319973-14.4114-3.621218-.59021.352976.95152 4.00922 2.25888 7.084267-1.18139-.06185-4.62959-1.756757-4.93114-5.303545-1.90616 1.337781-4.67195 2.220351-8.21599 3.633377z" fill="#2b5df2" fill-rule="evenodd"/><path d="m227.14835 63.051245c.59171.976289 2.60973 4.961262 2.20753 4.96126-.76868.274856-5.14098-3.759153-4.7792-4.84747.25772-.775269.53088-1.411001.93309-1.411001s1.21513.598536 1.63858 1.297211z"/></g></g><g fill="#2b5df2" stroke-width="5.10408"><path d="m273.27707 53.09609c-1.55555-16.24839 13.46218-17.45627 24.88158-21.92966-1.87333 10.35614-1.41422 23.93744-8.51761 27.06175" fill-rule="evenodd"/><path d="m296.41288 41.89166s-13.88716-2.79663-16.07225 12.7402"/></g></g></g><path d="m300.00001 659.13843s298.5-112.32031 298.5-397.77183c0-285.451502 0-258.5516818 0-258.5516818h-597.00001v258.5516818c0 285.45152 298.50001 397.77183 298.50001 397.77183z" fill="url(#a)" fill-rule="evenodd"/><path d="m300 659.03558s-298.5-112.41842-298.5-398.11926v-258.777501h596.99999v258.777501c0 285.70084-298.49999 398.11926-298.49999 398.11926z" fill="none" stroke="#000" stroke-width="3"/></g></svg>
