<svg height="660" width="600" xmlns="http://www.w3.org/2000/svg" xmlns:xlink="http://www.w3.org/1999/xlink"><radialGradient id="a" cx="221.44487" cy="226.33101" gradientTransform="matrix(1.353218 0 0 1.348928 -77.62935 -85.74693)" gradientUnits="userSpaceOnUse" r="300"><stop offset="0" stop-color="#fff" stop-opacity=".313726"/><stop offset=".19" stop-color="#fff" stop-opacity=".25098"/><stop offset=".60000002" stop-color="#6b6b6b" stop-opacity=".12549"/><stop offset="1" stop-opacity=".12549"/></radialGradient><path d="m300 658.5s298.50001-112.32031 298.50001-397.77183c0-285.451524 0-258.5516935 0-258.5516935h-597.00001v258.5516935c0 285.45152 298.5 397.77183 298.5 397.77183z" fill="#2b5df2" fill-rule="evenodd"/><g transform="translate(4.190897 28.871426)"><path id="b" d="m55.42803 247.13317c-16.814141-.0556-24.258745 4.97399-33.618927 9.33596v17.91031c0 29.44567 4.711892-25.30462 12.908291-.43755 5.382384-2.09053 11.729159-3.54311 20.768006-3.51326 28.276882.0919 32.518062 14.75566 59.66499 14.69185 27.14694-.0639 29.3602-14.99839 59.63631-14.69185 29.79852.30174 29.71819 14.67817 59.66499 14.69185 29.94677.0137 31.21232-14.66295 59.66499-14.69185 28.45266-.0289 30.19899 14.28404 59.66499 14.69185 29.466.40782 30.32344-14.48732 59.69367-14.69185 29.37966-.20457 30.78798 14.65145 59.60762 14.69185 28.81959.0404 29.75036-14.69184 59.69368-14.69185 10.54874 0 17.78739 1.81158 23.89467 4.15205 8.32733-25.04239 13.13778 29.49799 13.13778-.20124v-17.41895c-10.09969-4.30834-18.67209-9.82732-37.54878-9.82732-29.91298.00001-30.84596 14.70766-59.6363 14.66728-28.79041-.0403-30.20042-14.87165-59.55026-14.66728-29.34044.20431-30.1715 15.07468-59.60762 14.66728-29.4361-.4074-31.21249-14.69616-59.6363-14.66728-28.42382.0288-29.69122 14.68095-59.60762 14.66728-29.91643-.0137-29.83933-14.36585-59.60762-14.66728-30.24538-.30624-32.43086 14.60354-59.55025 14.66728-27.119393.0638-31.388115-14.57548-59.63631-14.66728z" fill="#fff" fill-rule="evenodd" stroke="#000" stroke-width="2.5"/><use id="c" height="100%" transform="translate(0 69.999998)" width="100%" xlink:href="#b"/><use height="100%" transform="translate(0 -35)" width="100%" xlink:href="#c"/></g><g fill="#fcef3c" stroke="#000" stroke-linejoin="round" stroke-width="4.985612" transform="matrix(.29339259 0 0 .30852926 190.02422 -5.261081)"><path d="m541.25411 356.58827 94.26422 130.01675-261.38114 68.67898-260.03525-68.67898 97.48268-131.08202z" fill="#e20909" stroke="#000" stroke-linejoin="round" stroke-width="4.985612"/><path d="m108.72336 486.269h532.54642v338.58624h-532.54642z" fill="#fff" stroke="#000" stroke-linejoin="round" stroke-width="4.985612"/><path d="m107.92396 514.21572h531.46767m-52.06905-.18949v28.19868m-51.76603-54.34059v28.19868m-110.49352-28.19868v28.19868m-105.69275-28.19868v28.19868m-109.37493-28.75886v28.19868m-53.64039-1.49659v28.19868m108.41537-28.54043v28.19868m109.31061-28.19868v28.42155m109.68939-28.42155v28.42155m-.37879-28.42155v28.19868m-58.32789 167.34359v28.19867m0-83.4832v28.42155m0-82.83045v28.19867m216.7095 137.14029h-531.31902m531.31904-27.50933h-534.35514m532.83708-27.50931h-529.80096m531.319-27.50932h-531.31902m529.801-27.50932h-532.8371m535.87321-27.50931h-532.83709m529.80096-27.50933h-532.83706m534.3551-27.50933h-534.3551m1.6218-28.97259h531.46767m-484.15333 28.97929v28.19867m0 25.3872v28.19867m-2.67998 27.87627v28.19867m165.69675 53.02529v28.19867m214.00198-25.43244v24.72686m-324.42079-81.46484v26.87925m110.41881-26.9907v28.42155m214.00198-28.3101v28.19867m-324.42079-82.41497v28.19868m110.41881-28.31012v28.42155m214.00198-28.31011v28.19868m-324.42079-84.93666v28.19868m110.41881-28.31012v28.42155m214.00198-28.31011v28.19868m-323.37748-82.41497v28.19868m109.3755-28.19868v28.19868m105.69269-28.19868v28.19868m-272.5578 164.37642v28.19867m272.5578.21952v28.42155m108.30929-249.41484v28.19868m-268.60261 165.22943v26.72957m109.31061-26.72957v28.42155m218.19224-28.42155v27.62111m-107.79252-27.62111v28.19868m-219.71033-83.04539v28.19867m109.31061-28.19867v28.42155m218.19224-28.42155v28.19867m-107.79252-28.19867v28.19867m-219.71033-84.93665v28.19867m109.31061-28.19867v28.42155m218.19224-28.42155v28.19867m-107.79252-27.56825v28.19867m-219.71033-83.04539v28.19868m109.31061-28.19868v28.42156m-162.021 165.04508v28.19868m381.02096-221.66532v28.19868m-109.31057-28.19868v28.42156m-.37879-28.42156v28.19868" fill="#fff" fill-rule="evenodd" stroke="#000" stroke-linejoin="round" stroke-width="3.323742"/><path d="m372.487 695.24663c-30.60377.9876-55.01585 17.1453-55.01585 36.85186v92.73777h115.89545v-92.73777c0-20.34224-25.96054-36.85186-57.9477-36.85186-.99962 0-1.94469-.0319-2.9319 0z" fill="#000" stroke="#000" stroke-linejoin="round" stroke-width="4.985612"/><path d="m203.95065 536.6295c-9.43.44932-16.95213 7.80014-16.95213 16.76548v39.91778h35.71102v-39.91778c0-9.25456-7.99925-16.76548-17.8555-16.76548-.30796 0-.59925-.0146-.90339 0z" fill="#000" stroke="#000" stroke-linejoin="round" stroke-width="4.985613"/><path d="m541.55528 536.6295c-9.42993.44932-16.95206 7.80014-16.95206 16.76548v39.91778h35.71098v-39.91778c0-9.25456-7.99925-16.76548-17.85549-16.76548-.30797 0-.59922-.0146-.90343 0z" fill="#000" stroke="#000" stroke-linejoin="round" stroke-width="4.985613"/><path d="m373.5904 519.43659c-12.19907.58125-21.93016 10.0907-21.93016 21.68879v51.63994h46.19778v-51.63994c0-11.97223-10.34828-21.68879-23.09889-21.68879-.39843 0-.77517-.0188-1.16873 0z" fill="#000" stroke="#000" stroke-linejoin="round" stroke-width="4.985613"/><path d="m136.13527 791.47826 505.56517-.001" fill="none" stroke="#000" stroke-linejoin="round" stroke-width="4.985612"/><use height="100%" stroke="none" transform="matrix(-1 0 0 1 749.68324 0)" width="100%" xlink:href="#d"/><g id="d" stroke-linejoin="round" stroke-width="4.984995" transform="matrix(1.0001236 0 0 1.000124 2.448622 -2.749602)"><path d="m3.831345 438.9123-.1852492 310.88784-15.2750858-.16335v44.48844l-13.519219.00029-.07196 33.37669h158.503719l-.0436-33.37698-10.70777.00021v-44.32432h-11.38646l.69556-310.97444z" fill="#fff" fill-rule="evenodd" stroke="#000" stroke-linejoin="round" stroke-width="4.984995"/><path d="m216.72655 423.89658-87.30836.00012m74.4355-26.91828-65.1591.00059" fill="none" stroke="#000" stroke-linejoin="round" stroke-width="3.027336" transform="matrix(1.646661 0 0 1.646661 -224.73687 96.111265)"/><path d="m54.063692 313.96183-88.182092 132.78863h176.19272z" fill="#e20909" fill-rule="evenodd" stroke="#000" stroke-linejoin="round" stroke-width="4.984995"/><path d="m80.335495 794.37957v32.48027m-57.633135-32.48027v32.48027m25.324494-90.54532v12.64599m40.541946 1.10624v23.78508m13.17329.22038v20.72301m-29.6399-20.86993v20.45428m-32.93322-20.52774v20.79647m-32.93322-20.6176v20.34887m53.516482-43.27256v22.99146m-32.907071-24.8784v23.88766m54.157034-36.8352v14.04946m-60.613196-13.96371v12.646m35.246581-36.68549v24.61824m24.699915-49.23646v24.61822m-57.633135-24.61822v24.61822m24.699915-49.86087v25.24265m-24.699915-49.86088v25.24264m41.166525-25.24264v25.24264m24.699915-49.86087v25.24264m-49.39983-25.24264v25.24264m-24.699915-49.86087v24.51543m41.166525-24.51543v24.51543m41.166525-24.51543v24.25571m-49.39983-48.87395v24.21421m32.93322-48.83243v24.21419m-57.633135-24.21419v24.21419m24.699915-48.83243v24.21421m41.166525-49.16301v24.17747m-65.86644-66.6028v16.37921m57.633135-16.37921v16.37921m-24.699915 1.42789v24.54477m-24.699915.0735v23.95709m91.019855 260.36748h-133.770198m122.742348-309.57226h-108.3301121m108.6090621 24.69991h-108.6090621m107.6508821 24.69992h-106.0042211m106.4972311 74.09974h-108.1438921m107.5015721 98.79966h-107.4860276m107.3767776-74.09974h-107.0474454m108.4568754-49.39983h-108.8017521m107.0654021 74.09974h-105.0738644m104.7289944-98.79966h-105.0738711m105.0738711 123.49958h-105.0738711m106.6061511 74.09974h-104.9669988m103.7795888-24.69991h-105.0738644" fill="none" stroke="#000" stroke-linejoin="round" stroke-width="2.492498"/></g></g><g id="e" stroke="#000" stroke-width="1.390526" transform="matrix(1.4397933 0 0 1.4368171 75.255189 108.02857)"><path d="m29.738807 62.945549c-2.689943 6.351213-6.015432 8.922247-9.243665 12.043068 3.618431.01652 7.225043-.678341 10.962762-3.813951.06366 9.674934 1.458013 12.982212 4.819106 16.232778 3.322963-3.148967 4.858497-6.547149 4.847287-16.232778 3.737718 3.135613 7.334938 3.830472 10.953368 3.813951-3.227999-3.120592-6.544434-5.692883-9.234271-12.043068z" fill="#fcef3c" fill-rule="evenodd" stroke="#000" stroke-width="1.390526"/><path d="m21.706974 58.178268h29.158859v4.771534h-29.158859z" fill="#fcef3c" stroke="#000" stroke-width="1.390526"/><path d="m126.28125 7.9375c-34.941678 37.094566-48.391726 79.825556-20.625 133.34375 6.34161 16.25846 11.33844 33.04455 10.3125 52.25h20.625c-1.02594-19.20545 3.97088-35.99154 10.3125-52.25 27.76673-53.518189 14.31668-96.249184-20.625-133.34375z" fill="#fcef3c" fill-rule="evenodd" stroke="#000" stroke-width="4.625728" transform="matrix(.300607 0 0 .300607 -1.678333 0)"/><path d="m52.25 100c-35.235309.84534-58.7273133 60.01799 15.21875 88.875-24.439711-47.87444 20.895745-30.13204 26.875 4.65625h17.53125c-9.67933-70.66082-37.052039-94.072804-59.625-93.53125z" fill="#fcef3c" fill-rule="evenodd" stroke="#000" stroke-width="4.625728" transform="matrix(.300607 0 0 .300607 -1.678333 0)"/><path d="m198.96875 100c-22.30142.41761-48.7644 24.28444-58.25 93.53125h17.5c5.97956-34.78829 51.34596-52.53069 26.90625-4.65625 74.89409-29.22698 49.82147-89.548704 13.84375-88.875z" fill="#fcef3c" fill-rule="evenodd" stroke="#000" stroke-width="4.625728" transform="matrix(.300607 0 0 .300607 -1.678333 0)"/></g><use height="100%" transform="translate(345)" width="100%" xlink:href="#e"/><use height="100%" transform="translate(172.51341 295)" width="100%" xlink:href="#e"/><g transform="translate(682.48977 -14.52608)"><path d="m-680.98977 16.026092v258.817758c0 285.74628 298.5 398.18223 298.5 398.18223s298.5-112.43595 298.5-398.18223v-258.817758zm83.78125 50.782854c10.0921 0 18.83615 5.81733 22.96875 14.262762 4.1325-8.445432 12.8453-14.262762 22.9375-14.262762 11.0179 0 20.40745 6.934753 23.96875 16.649985 3.559-9.719697 12.94755-16.649985 23.96875-16.649985 11.0179 0 20.40745 6.934753 23.96875 16.649985 3.559-9.719697 12.94755-16.649985 23.96875-16.649985 11.0038 0 20.4283 6.891699 24 16.58742 3.5767-9.686102 12.9406-16.58742 23.9375-16.58742 11.0038 0 21.4283 6.891699 25 16.58742 3.5766-9.686102 11.9406-16.587471 22.9375-16.58742 11.0037 0 20.4283 6.891699 24 16.58742 3.5767-9.686102 12.9406-16.58742 23.9375-16.58742 11.0038 0 20.4284 6.891699 24 16.58742 3.5768-9.686102 12.97185-16.58742 23.96875-16.58742 11.0037 0 20.39705 6.891699 23.96875 16.58742 3.5767-9.686102 12.97205-16.58742 23.96875-16.58742 11.0041 0 20.39715 6.891699 23.96875 16.58742 3.5768-9.686102 12.97185-16.58742 23.96875-16.58742 14.0758 0 25.5 11.333691 25.5 25.299537 0 10.945997-7.03175 20.259417-16.84375 23.782347 9.812 3.52292 16.84375 12.83438 16.84375 23.78039 0 10.946-7.03175 20.2594-16.84375 23.78234 9.812 3.52292 16.84375 12.83438 16.84375 23.78039 0 10.946-7.03175 20.25745-16.84375 23.78039 9.812 3.52291 16.84375 12.83633 16.84375 23.78234 0 10.946-7.03175 20.25747-16.84375 23.78039 9.812 3.52293 16.84375 12.83633 16.84375 23.78235-.0004 11.6473-7.947 21.46157-18.75 24.40017 8.8616 3.96537 15.0625 12.80241 15.0625 23.06872.0004 13.09298-10.05295 23.87994-22.90625 25.17636 6.447 4.59288 10.65625 12.08643 10.65625 20.55635 0 13.96584-11.4239 25.29953-25.5 25.29954-.7827 0-1.5476-.0232-2.3125-.0919 4.8072 4.60236 7.8125 11.05375 7.8125 18.20041 0 13.96583-11.4239 25.29953-25.5 25.29954-2.0118 0-3.96575-.24459-5.84375-.68235 2.8968 4.10489 4.59375 9.09195 4.59375 14.47979 0 13.96585-11.4239 25.30148-25.5 25.30149-3.5928 0-6.99215-.74597-10.09375-2.07832 1.9304 3.56158 3 7.64281 3 11.96742 0 13.96584-11.424 25.30148-25.5 25.30149-4.5503 0-8.8003-1.18035-12.5-3.25531.9374 2.63404 1.4375 5.45009 1.4375 8.40125 0 13.96584-11.424 25.30152-25.5 25.30149-5.6782 0-10.91705-1.84262-15.15625-4.9602.4438 1.86853.6875 3.82596.6875 5.82828.0004 13.96585-11.4239 25.29956-25.5 25.29953-6.782 0-12.96165-2.62414-17.53125-6.91338.081.82011.125 1.64.125 2.48108 0 13.96582-11.424 25.29957-25.5 25.29954-13.1963-.00002-24.0683-9.97379-25.375-22.72658-.044-.42509-.0717-.83977-.0937-1.27084-.021-.43102-.0312-.86566-.0312-1.30212 0-.41567.0113-.83073.0312-1.24152.001-.0205-.001-.04 0-.0606.021-.39966.0548-.78436.0937-1.17896-4.5696 4.28921-10.74915 6.91341-17.53125 6.91338-14.076 0-25.5-11.33365-25.5-25.29953 0-2.00235.2437-3.95972.6875-5.82828-4.2392 3.11755-9.47805 4.96023-15.15625 4.9602-14.076 0-25.4999-11.33566-25.5-25.30149 0-2.95115.5001-5.76722 1.4375-8.40125-3.6997 2.07497-7.9496 3.2553-12.5 3.25531-14.076 0-25.5-11.33566-25.5-25.30149 0-4.3246 1.0697-8.40585 3-11.96742-3.1015 1.33236-6.50065 2.07831-10.09375 2.07832-14.076 0-25.5-11.33565-25.5-25.30149 0-5.38783 1.69695-10.37491 4.59375-14.47979-1.878.43777-3.83175.68234-5.84375.68235-14.076 0-25.5-11.33371-25.5-25.29954 0-7.14664 3.005-13.59806 7.8125-18.20041-.765.0686-1.5296.0919-2.3125.0919-14.076 0-25.5-11.33371-25.5-25.29954 0-8.46992 4.20925-15.96348 10.65625-20.55635-12.8534-1.29641-22.90625-12.08339-22.90625-25.17636 0-10.2663 6.2006-19.10336 15.0625-23.06872-10.8032-2.93859-18.75-12.75287-18.75-24.40017 0-10.946 7.03175-20.25943 16.84375-23.78235-9.812-3.52291-16.84375-12.8344-16.84375-23.78039 0-10.946 7.03175-20.25944 16.84375-23.78234-9.812-3.52293-16.84375-12.8344-16.84375-23.78039 0-10.946 7.03175-20.25748 16.84375-23.78039-9.812-3.52293-16.84375-12.83634-16.84375-23.78234 0-10.94601 7.03175-20.25747 16.84375-23.78039-9.812-3.52293-16.84375-12.83635-16.84375-23.782347 0-13.965846 11.424-25.299537 25.5-25.299537z" fill="#e20909" fill-rule="evenodd"/><path d="m-597.20901 66.808625c-14.076-.000002-25.5 11.334598-25.5 25.300443 0 10.946002 7.0318 20.258252 16.8438 23.781172-9.812 3.52293-16.8438 12.83517-16.8438 23.78118 0 10.946 7.0318 20.25825 16.8438 23.78118-9.812 3.52291-16.8438 12.83517-16.8438 23.78117 0 10.94599 7.0318 20.25826 16.8438 23.78118-9.812 3.5229-16.8438 12.83517-16.8438 23.78117 0 10.94599 7.0318 20.25826 16.8438 23.78117-9.812 3.52292-16.8438 12.83518-16.8438 23.78118 0 11.6473 7.9468 21.4627 18.75 24.40128-8.8619 3.96537-15.0625 12.80176-15.0625 23.06806 0 13.09296 10.0529 23.88001 22.9063 25.17642-6.447 4.59287-10.6563 12.08668-10.6563 20.5566 0 13.96583 11.424 25.30045 25.5 25.30045.7829-.00001 1.5475-.0244 2.3125-.093-4.8075 4.60235-7.8125 11.05355-7.8125 18.2002 0 13.96582 11.424 25.30044 25.5 25.30044 2.012-.00001 3.9658-.24436 5.8438-.68212-2.8968 4.10487-4.5938 9.09171-4.5938 14.47954 0 13.96584 11.424 25.30044 25.5 25.30044 3.5931-.00001 6.9923-.745 10.0938-2.07736-1.9303 3.56157-3 7.6435-3 11.9681 0 13.96583 11.424 25.30044 25.5 25.30044 4.5504-.00001 8.8003-1.1806 12.5-3.25557-.9374 2.63403-1.4375 5.45134-1.4375 8.40248.0001 13.96583 11.424 25.30044 25.5 25.30044 5.6782.00003 10.917-1.84332 15.1562-4.96087-.4438 1.86856-.6875 3.82667-.6875 5.82902 0 13.96588 11.424 25.30044 25.5 25.30044 6.7821.00003 12.9617-2.625 17.5313-6.91421-.039.3946-.073.77855-.094 1.1782-.001.0205.001.0416 0 .0621-.02.41079-.031.82455-.031 1.24022 0 .43646.01.8712.031 1.30222.022.43107.05.84613.094 1.27122 1.3067 12.75279 12.1787 22.72698 25.375 22.727 14.076.00003 25.5-11.33463 25.5-25.30044 0-.84108-.044-1.66033-.125-2.48044 4.5696 4.28924 10.7492 6.91421 17.5312 6.91421 14.0761.00003 25.5004-11.33459 25.5-25.30044 0-2.00232-.2436-3.96049-.6874-5.82902 4.2392 3.11758 9.478 4.96087 15.1562 4.96087 14.076.00003 25.5-11.3346 25.5-25.30044 0-2.95115-.5001-5.76844-1.4375-8.40248 3.6997 2.07496 7.9497 3.25557 12.5 3.25557 14.076-.00001 25.5-11.3346 25.5-25.30044 0-4.32461-1.0696-8.40652-3-11.9681 3.1016 1.33235 6.5009 2.07736 10.0937 2.07736 14.0761-.00001 25.5-11.33459 25.5-25.30044 0-5.38784-1.6969-10.37466-4.5937-14.47954 1.878.43775 3.8319.68212 5.8437.68212 14.0761-.00001 25.5-11.33461 25.5-25.30044 0-7.14666-3.0052-13.59784-7.8124-18.2002.7649.0687 1.5297.093 2.3124.093 14.0761-.00001 25.5-11.33461 25.5-25.30045 0-8.46992-4.2092-15.96372-10.6562-20.5566 12.8533-1.29642 22.9066-12.08345 22.9062-25.17642 0-10.26631-6.2008-19.10268-15.0624-23.06806 10.803-2.93859 18.7496-12.75397 18.75-24.40128 0-10.94601-7.0318-20.25825-16.8438-23.78118 9.812-3.52292 16.8438-12.83517 16.8438-23.78117 0-10.94601-7.0318-20.25826-16.8438-23.78117 9.812-3.52293 16.8438-12.83518 16.8438-23.78118 0-10.94601-7.0318-20.25825-16.8438-23.78117 9.812-3.52294 16.8438-12.83518 16.8438-23.78118 0-10.94601-7.0318-20.25825-16.8438-23.78118 9.812-3.52292 16.8438-12.83517 16.8438-23.781172 0-13.965843-11.4242-25.300443-25.5-25.300443-10.9969-.000002-20.392 6.901812-23.9688 16.587912-3.5716-9.695722-12.9647-16.587912-23.9688-16.587912-10.9967-.000002-20.392 6.901812-23.9687 16.587912-3.5717-9.695722-12.965-16.587912-23.9687-16.587912-10.9969-.000002-20.392 6.901812-23.9688 16.587912-3.5716-9.695722-12.9962-16.587912-24-16.587912-10.9969-.000002-20.3608 6.901812-23.9375 16.587912-3.5717-9.695722-12.9963-16.587912-24-16.587912-10.9969-.000052-19.3607 6.901762-22.9373 16.587862-3.5717-9.695722-13.9964-16.587912-25.0002-16.587912-10.9969-.000002-20.3608 6.901812-23.9375 16.587912-3.5717-9.695722-12.9962-16.587912-24-16.587912-11.0212-.000002-20.4098 6.930228-23.9688 16.649923-3.5613-9.715238-12.9508-16.649923-23.9687-16.649923-11.0212-.000002-20.4098 6.930228-23.9688 16.649923-3.5613-9.715238-12.9508-16.649923-23.9687-16.649923-10.0922-.000002-18.805 5.817078-22.9375 14.262505-4.1326-8.445429-12.8767-14.262505-22.9688-14.262505z" fill="none" stroke="#000" stroke-width="3"/></g><path d="m300.00001 658.5s298.5-112.32031 298.5-397.77183c0-285.451504 0-258.5516835 0-258.5516835h-597.00001v258.5516835c0 285.45152 298.50001 397.77183 298.50001 397.77183z" fill="url(#a)" fill-rule="evenodd"/><path d="m299.99999 658.39715s-298.49999-112.41841-298.49999-398.11925c0-285.700818 0-258.7775027 0-258.7775027h596.99999v258.7775027c0 285.70084-298.5 398.11925-298.5 398.11925z" fill="none" stroke="#000" stroke-width="3"/></svg>
