<svg height="660" width="600" xmlns="http://www.w3.org/2000/svg" xmlns:xlink="http://www.w3.org/1999/xlink"><pattern id="a" patternTransform="matrix(1 0 0 1.2213976 433.62594 847.82278)" xlink:href="#q"/><pattern id="b" patternTransform="matrix(1 0 0 1.2213976 433.62594 847.82278)" xlink:href="#q"/><pattern id="c" patternTransform="matrix(1 0 0 1.2213976 433.62594 847.82278)" xlink:href="#q"/><pattern id="d" patternTransform="matrix(1 0 0 1.2213976 433.62594 847.82278)" xlink:href="#q"/><pattern id="e" patternTransform="matrix(1 0 0 1.2213976 433.62594 847.82278)" xlink:href="#q"/><pattern id="f" patternTransform="matrix(1 0 0 1.2213976 433.62594 847.82278)" xlink:href="#q"/><pattern id="g" patternTransform="matrix(1 0 0 1.2213976 433.62594 847.82278)" xlink:href="#q"/><pattern id="h" patternTransform="matrix(1 0 0 1.2111434 -65 498.47537)" xlink:href="#E"/><pattern id="i" patternTransform="matrix(1 0 0 1.2262251 -65 507.23968)" xlink:href="#E"/><pattern id="j" patternTransform="matrix(1 0 0 1.2213976 197.59857 847.82278)" xlink:href="#s"/><pattern id="k" patternTransform="matrix(1 0 0 1.2213976 197.59857 845.72799)" xlink:href="#t"/><pattern id="l" patternTransform="matrix(1 0 0 1.2213976 197.59857 847.82278)" xlink:href="#u"/><pattern id="m" patternTransform="matrix(1 0 0 1.2213976 197.59857 848.75541)" xlink:href="#v"/><pattern id="n" patternTransform="matrix(1 0 0 1.2213976 197.59857 847.98736)" xlink:href="#w"/><pattern id="o" patternTransform="matrix(1 0 0 1.2213976 197.59857 846.89176)" xlink:href="#x"/><pattern id="p" patternTransform="matrix(1 0 0 1.2213976 197.59857 846.81418)" xlink:href="#y"/><pattern id="q" patternTransform="matrix(1 0 0 1.2213976 433.62594 847.82278)" xlink:href="#r"/><pattern id="r" patternTransform="matrix(1 0 0 1.2213976 433.62594 847.82278)" xlink:href="#E"/><pattern id="s" patternTransform="matrix(1 0 0 1.2213976 197.59857 847.82278)" xlink:href="#E"/><pattern id="t" patternTransform="matrix(1 0 0 1.2213976 197.59857 847.82278)" xlink:href="#E"/><pattern id="u" patternTransform="matrix(1 0 0 1.2213976 197.59857 847.82278)" xlink:href="#E"/><pattern id="v" patternTransform="matrix(1 0 0 1.2213976 197.59857 847.82278)" xlink:href="#E"/><pattern id="w" patternTransform="matrix(1 0 0 1.2213976 197.59857 847.82278)" xlink:href="#E"/><pattern id="x" patternTransform="matrix(1 0 0 1.2213976 197.59857 847.82278)" xlink:href="#E"/><pattern id="y" patternTransform="matrix(1 0 0 1.2213976 197.59857 847.82278)" xlink:href="#E"/><pattern id="z" patternTransform="translate(-65 390)" xlink:href="#L"/><pattern id="A" patternTransform="translate(-65 390)" xlink:href="#L"/><pattern id="B" patternTransform="translate(-65 390)" xlink:href="#L"/><pattern id="C" patternTransform="translate(-65 390)" xlink:href="#L"/><pattern id="D" patternTransform="translate(-65 390)" xlink:href="#L"/><pattern id="E" patternTransform="translate(-65 390)" xlink:href="#L"/><pattern id="F" patternTransform="translate(-65 390)" xlink:href="#L"/><pattern id="G" patternTransform="translate(-65 390)" xlink:href="#L"/><pattern id="H" patternTransform="translate(-65 390)" xlink:href="#L"/><pattern id="I" patternTransform="translate(-65 390)" xlink:href="#L"/><pattern id="J" patternTransform="translate(-65 390)" xlink:href="#L"/><radialGradient id="K" cx="221.44487" cy="226.33101" gradientTransform="matrix(1.353218 0 0 1.348928 -79.12935 -87.24692)" gradientUnits="userSpaceOnUse" r="300"><stop offset="0" stop-color="#fff" stop-opacity=".313726"/><stop offset=".19" stop-color="#fff" stop-opacity=".25098"/><stop offset=".60000002" stop-color="#6b6b6b" stop-opacity=".12549"/><stop offset="1" stop-opacity=".12549"/></radialGradient><pattern id="L" height="20" patternTransform="translate(-65 390)" patternUnits="userSpaceOnUse" width="40.000002"><g transform="translate(65 -390)"><path d="m-64.999998 390.25h40v9.5h-40v-9.5z" fill="#fff"/><path d="m-64.75 400.25h19.5v9.5h-19.5v-9.5z" fill="#fff" stroke="#000" stroke-linecap="square" stroke-miterlimit="1.5" stroke-width=".5"/><path d="m-44.749998 400.25h19.5v9.5h-19.5v-9.5z" fill="#fff" stroke="#000" stroke-linecap="square" stroke-miterlimit="1.5" stroke-width=".5"/><path d="m-54.749998 390.25h19.5v9.5h-19.5v-9.5z" fill="#fff" stroke="#000" stroke-linecap="square" stroke-miterlimit="1.5" stroke-width=".5"/><path d="m-25.249999 399.75c-3.166667 0-6.333333 0-9.5 0 0-3.16667 0-6.33333 0-9.5h9.5" fill="none" stroke="#000" stroke-linecap="square" stroke-miterlimit="1.5" stroke-width=".5"/><path d="m-64.749998 390.25h9.500001v9.5h-9.500001" fill="none" stroke="#000" stroke-linecap="square" stroke-miterlimit="1.5" stroke-width=".5"/></g></pattern><path d="m300 658.5s298.50001-112.32031 298.50001-397.77183c0-285.451524 0-258.5516935 0-258.5516935h-597.00001v258.5516935c0 285.45152 298.5 397.77183 298.5 397.77183z" fill="#e20909" fill-rule="evenodd"/><g id="M" stroke="#000" stroke-width="1.750156" transform="matrix(1.142772 0 0 1.1427387 27.939451 88.731799)"><path d="m29.738807 62.945549c-2.689943 6.351213-6.015432 8.922247-9.243665 12.043068 3.618431.01652 7.225043-.678341 10.962762-3.813951.06366 9.674934 1.458013 12.982212 4.819106 16.232778 3.322963-3.148967 4.858497-6.547149 4.847287-16.232778 3.737718 3.135613 7.334938 3.830472 10.953368 3.813951-3.227999-3.120592-6.544434-5.692883-9.234271-12.043068z" fill="#fcef3c" fill-rule="evenodd" stroke="#000" stroke-width="1.750156"/><path d="m21.706974 58.178268h29.158859v4.771534h-29.158859z" fill="#fcef3c" stroke="#000" stroke-width="1.750156"/><path d="m126.28125 7.9375c-34.941678 37.094566-48.391726 79.825556-20.625 133.34375 6.34161 16.25846 11.33844 33.04455 10.3125 52.25h20.625c-1.02594-19.20545 3.97088-35.99154 10.3125-52.25 27.76673-53.518189 14.31668-96.249184-20.625-133.34375z" fill="#fcef3c" fill-rule="evenodd" stroke="#000" stroke-width="5.822073" transform="matrix(.300607 0 0 .300607 -1.678333 0)"/><path d="m52.25 100c-35.235309.84534-58.7273133 60.01799 15.21875 88.875-24.439711-47.87444 20.895745-30.13204 26.875 4.65625h17.53125c-9.67933-70.66082-37.052039-94.072804-59.625-93.53125z" fill="#fcef3c" fill-rule="evenodd" stroke="#000" stroke-width="5.822073" transform="matrix(.300607 0 0 .300607 -1.678333 0)"/><path d="m198.96875 100c-22.30142.41761-48.7644 24.28444-58.25 93.53125h17.5c5.97956-34.78829 51.34596-52.53069 26.90625-4.65625 74.89409-29.22698 49.82147-89.548704 13.84375-88.875z" fill="#fcef3c" fill-rule="evenodd" stroke="#000" stroke-width="5.822073" transform="matrix(.300607 0 0 .300607 -1.678333 0)"/></g><use id="N" height="100%" transform="translate(111 -50)" width="100%" xlink:href="#M"/><use height="100%" transform="translate(123.5 -30)" width="100%" xlink:href="#N"/><use height="100%" transform="matrix(-1 0 0 1 605.31284 0)" width="100%" xlink:href="#M"/><use height="100%" transform="matrix(-1 0 0 1 597.31284 0)" width="100%" xlink:href="#N"/><use height="100%" transform="translate(464.99984)" width="100%" xlink:href="#P"/><use height="100%" transform="translate(234.99983 -.00017)" width="100%" xlink:href="#O"/><g id="O" stroke-width="1.01636" transform="matrix(.98376844 0 0 .98403835 5.186315 6.611061)"><path d="m144.99621 151.13309v33.54876h71.40648v-33.54876h-8.89813v14.58049h-6.72551v-14.58049h-8.89813v14.60774h-6.7255v-14.60774h-8.89813v14.635h-6.72547v-14.635h-8.89813v14.66224h-6.7255v-14.66224z" style="fill-rule:evenodd;stroke:#000;stroke-width:2.5409;stroke-linecap:round;stroke-linejoin:round;fill:url(#j)"/><path d="m148.68196 191.93521 64.03498.63553c-.87252 2.22438-7.85263 14.29957-6.22141 27.32806l-51.59217.63554c1.02426-5.40205-.94837-19.38386-6.2214-28.59913z" style="fill-rule:evenodd;stroke:#000;stroke-width:2.5409;stroke-linecap:round;stroke-linejoin:round;fill:url(#k)"/><path d="m155.90254 222.0199-.23011.73605s.0307.34513.0677.84509l.027.3544c1.60601 35.36145-4.78783 72.2254-17.828 94.59577v.38166c-.0721.11579-.14424.23064-.21657.3544l-.40611 57.52071h84.99773v-.73606h.21661l-.20307-58.01144c.00004 0-.0541-.1136-.0677-.13634l-.20307-.35439c-13.12735-24.66376-17.10777-61.19113-16.06814-94.37763l.0135-.3544c.01-.27051.0168-.54606.0271-.81782z" style="fill-rule:evenodd;stroke:#000;stroke-width:2.5409;stroke-linecap:round;stroke-linejoin:round;fill:url(#l)"/><path d="m155.0295 223.37968h51.680553v3.560505h-51.680553z" style="fill-rule:evenodd;stroke:#000;stroke-width:2.5409;stroke-linecap:round;stroke-linejoin:round;fill:url(#m)"/><path d="m154.15268 219.59415h53.434181v3.814827h-53.434181z" style="fill-rule:evenodd;stroke:#000;stroke-width:2.5409;stroke-linecap:round;stroke-linejoin:round;fill:url(#n)"/><path d="m147.14212 188.84886h67.455307v3.938624h-67.455307z" style="fill-rule:evenodd;stroke:#000;stroke-width:2.5409;stroke-linecap:round;stroke-linejoin:round;fill:url(#o)"/><path d="m145.99768 184.6877h69.744209v4.219955h-69.744209z" style="fill-rule:evenodd;stroke:#000;stroke-width:2.5409;stroke-linecap:round;stroke-linejoin:round;fill:url(#p)"/><path d="m161.45402 377.32217h39.01769v-81.36859s-4.54719-25.6762-18.48202-28.93103c-13.93498-3.25469-20.68237 30.01591-20.68237 30.01591z" style="fill:#e20909;fill-rule:evenodd;stroke:#000;stroke-width:2.5409;stroke-linecap:round;stroke-linejoin:round"/></g><g id="P" stroke="#000" stroke-linecap="round" stroke-linejoin="round" stroke-width="2.540923" transform="matrix(.98376844 0 0 .98402014 148.52267 383.35415)"><path d="m-113.91661-145.28252 64.034978.52033c-.872518 1.82118-7.852627 11.70755-6.221405 22.37442l-51.592173.52034c1.02426-4.42285-.94837-15.87023-6.2214-23.41509z" style="fill-rule:evenodd;stroke:#000;stroke-width:2.540923;stroke-linecap:round;stroke-linejoin:round;fill:url(#E)"/><path d="m-106.69603-122.36623-.23011.60263s.0307.28257.0677.6919l.027.29016c1.60601 28.951631-4.78783 59.133406-17.828 77.448794v.312481c-.0721.0948-.14424.188829-.21657.290156l-.40611 47.0941736h84.997732v-.6026366h.21661l-.203069-47.495951c.000034 0-.05413-.09301-.06767-.111622l-.20307-.290156c-13.127424-20.193066-17.107847-50.099271-16.068217-77.270189l.01354-.29016c.0096-.22148.01675-.44708.02708-.66958z" style="fill-rule:evenodd;stroke:#000;stroke-width:2.540923;stroke-linecap:round;stroke-linejoin:round;fill:url(#E)"/><path d="m-106.59078-121.67307-.23011.60262s.0307.28258.0677.69191l.0271.29015c1.60601 28.951635-4.78786 59.133446-17.828 77.448775v.312481c-.0722.09486-.14425.188888-.21658.290156l-.4061 47.0942333h84.99767v-.6026366h.216575l-.203034-47.4959517s-.05416-.09301-.0677-.111621l-.203035-.290156c-13.127458-20.193103-17.107847-50.099307-16.068217-77.27023l.01354-.29015c.0096-.22149.01675-.44708.02708-.66958z" style="fill-rule:evenodd;stroke:#000;stroke-width:2.540923;stroke-linecap:round;stroke-linejoin:round;fill:url(#E)"/><path d="m-107.56908-120.6078h51.680553v3.574578h-51.680553z" style="fill-rule:evenodd;stroke:#000;stroke-width:2.540923;stroke-linecap:round;stroke-linejoin:round;fill:url(#i)"/><path d="m-113.74629-146.33436 64.034983.52033c-.872484 1.82117-7.852628 11.70754-6.221406 22.37442l-51.592137.52033c1.02422-4.42285-.94841-15.87022-6.22144-23.41508z" style="fill-rule:evenodd;stroke:#000;stroke-width:2.540923;stroke-linecap:round;stroke-linejoin:round;fill:url(#E)"/><path d="m-115.45644-145.58356h67.455307v3.992736h-67.455307z" style="fill:#fff;fill-rule:evenodd;stroke:#000;stroke-width:2.540924;stroke-linecap:round;stroke-linejoin:round"/><path d="m-108.44589-124.64219h53.434181v3.7828h-53.434181z" style="fill-rule:evenodd;stroke:#000;stroke-width:2.540923;stroke-linecap:round;stroke-linejoin:round;fill:url(#h)"/><path d="m-126.83134-4.917258h88.943695v10.400739h-88.943695z" style="fill-rule:evenodd;stroke:#000;stroke-width:2.540923;stroke-linecap:round;stroke-linejoin:round;fill:url(#E)"/><path d="m-101.14455 4.7850544h39.01769v-66.6192524s-4.547189-21.02198-18.482022-23.686826c-13.934973-2.664727-20.682368 24.575058-20.682368 24.575058z" style="fill:#e20909;fill-rule:evenodd;stroke:#000;stroke-width:2.540923;stroke-linecap:round;stroke-linejoin:round"/><path d="m-117.50485-179.47676v27.46753h8.91194v-.0669h6.72551v.0669h8.898127v-.0669h6.725504v.0669h8.89813v-.0669h6.725504v.0669h8.89813v-.0669h6.72547v.0669h8.898129v-27.46753h-8.898129v11.93756h-6.72547v-11.93756h-8.89813v11.95987h-6.725504v-11.95987h-8.89813v11.98218h-6.725504v-11.98218h-8.898127v12.00449h-6.72551v-12.00449z" style="fill-rule:evenodd;stroke:#000;stroke-width:2.032739;stroke-linecap:round;stroke-linejoin:round;fill:url(#E)"/><path d="m-116.60088-152.45476h69.744209v5.759171h-69.744209z" style="fill:#fff;fill-rule:evenodd;stroke:#000;stroke-width:2.540923;stroke-linecap:round;stroke-linejoin:round"/></g><g stroke="#000"><g fill-rule="evenodd" stroke-linecap="round" stroke-linejoin="round" stroke-width="2.545797" transform="matrix(.98184972 0 0 .98217152 1.893517 8.556456)"><path d="m268.30528 117.37418v37.5984h8.92939v-.0916h6.73865v.0916h8.91552v-.0916h6.73861v.0916h8.91552v-.0916h6.73865v.0916h8.91551v-.0916h6.73865v.0916h8.91552v-37.5984h-8.91552v16.34049h-6.73865v-16.34049h-8.91551v16.37104h-6.73865v-16.37104h-8.91552v16.40159h-6.73861v-16.40159h-8.91552v16.43211h-6.73865v-16.43211z" fill="url(#a)"/><path d="m271.99823 165.44914 64.16012.71224c-.87423 2.49289-7.86798 16.02567-6.23357 30.62682l-51.69299.71225c1.02626-6.05413-.95022-21.72366-6.23356-32.05131z" fill="url(#b)"/><path d="m279.23292 196.81767-.23056.8249s.0308.38679.0678.94711l.0271.39717c1.60915 39.6299-4.79719 80.94366-17.86284 106.01434v.42773c-.0723.12977-.14452.25848-.217.39718l-.4069 64.46397h85.16383v-.8249h.21704l-.20347-65.01395c.00004 0-.0542-.12731-.0678-.15279l-.20347-.39717c-13.15304-27.6409-17.14124-68.57746-16.09958-105.76986l.0136-.39718c.01-.30316.0168-.61198.0271-.91655z" fill="url(#c)"/><path d="m278.35818 197.2964h51.781548v3.99029h-51.781548z" fill="url(#d)"/><path d="m277.47964 193.91467h53.538601v4.275312h-53.538601z" fill="url(#e)"/><path d="m270.45541 160.68599h67.587128v4.414052h-67.587128z" fill="url(#f)"/><path d="m269.30872 156.10948h69.880501v4.729341h-69.880501z" fill="url(#g)"/><path d="m259.05826 357.58551h89.117508v14.236856h-89.117508z" fill="url(#q)"/><path d="m284.79525 370.86634h39.09394v-91.19052s-4.55608-28.77555-18.51814-32.42327c-13.9622-3.64756-20.72279 33.63911-20.72279 33.63911z" fill="#e20909"/></g><g stroke-linecap="round" stroke-linejoin="round" stroke-width="2.499813" transform="matrix(1.0000742 0 0 1.0000751 -.097767 .489132)"><path d="m583.80449 365.29779c-7.78589 22.5005-35.52115 22.23315-55.187 22.06576-69.45285-3.64896-138.59882-13.00318-208.26124-12.98575-78.71878-2.15003-156.93437 8.30111-234.686377 19.19545-19.298803 1.08286-41.707538 6.48734-58.714499-5.13153-9.387534-10.83762-15.724464-27.9156 5.046969-24.82009 140.654697-20.73486 283.670497-23.06059 425.357617-13.07697 42.32008 3.22602 84.55969 7.83856 126.44453 14.75313z" fill="#fff"/><path d="m35.863229 418.28165c-6.186401-14.87446-12.473381-29.71059-17.442743-45.04892 145.736094-23.28749 294.311674-26.17774 441.341374-15.46321 40.90537 3.22022 81.72239 7.78299 122.22915 14.36537-4.32212 11.787-8.64424 23.574-12.96636 35.361-6.37872-1.57761-13.60139-10.38783-18.95759-3.20264-9.76661 7.71682-19.53321 15.43365-29.29982 23.15047-12.59021-3.86634-25.78549-6.58621-38.0009-11.1627-9.99683-8.37573-19.99367-16.75146-29.99051-25.12719-18.20128 1.82843-25.29539 27.44208-39.40432 29.84396-14.27956-7.22817-30.30375-11.6859-41.71606-23.4672-6.60797-5.46259-13.21594-10.92518-19.82391-16.38777-11.67951 9.59388-23.35901 19.18776-35.03852 28.78164-12.29382-1.30769-25.31949-.8286-37.15833-3.24712-9.44344-8.09438-18.88688-16.18876-28.33032-24.28314-12.14397 9.44004-23.61 20.46006-36.17368 28.92194-11.99633 1.48269-23.99265 2.96538-35.98898 4.44807-9.73292-8.20346-19.46584-16.40692-29.19876-24.61038-12.65998 9.06347-24.38143 19.86869-37.61559 27.8666-11.23761 3.9201-22.475213 7.84019-33.712819 11.76029-9.593879-8.48155-19.187759-16.96309-28.781638-25.44464-4.656558 4.31519-9.313116 8.63038-13.969674 12.94557z" fill="url(#z)"/><g fill="#fff"><path d="m120.00055 414.96273c12.99327-16.32128 21.18008-26.32168 29.62008-26.13536s16.87404 8.81011 29.62008 24.39301v9.58296c-9.07921-7.98506-21.60667-27.10915-29.62008-27.00654s-21.05598 18.14707-29.62008 28.7489z"/><path d="m422.29959 414.09156c12.99327-16.32128 21.18008-26.32168 29.62008-26.13536s16.87404 8.81011 29.62008 24.39301v9.58296c-9.07921-7.98506-21.60667-27.10915-29.62008-27.00654s-21.05598 18.14707-29.62008 28.7489z"/><path d="m33.386496 412.37018c-.945591 1.1023 7.108575-9.57032 15.548577-9.384s16.87404 8.81011 29.62008 24.39301v9.58296c-9.07921-7.98506-21.124231-27.54978-29.62008-27.00654s-11.912307 8.19708-12.635798 8.34477z"/><path d="m524.22752 423.67452c12.99327-16.32128 21.18008-26.32168 29.62008-26.13536s15.36606 10.95489 15.04442 9.9854l-3.0823 6.96942c-.36742-.14445-3.94871-10.088-11.96212-9.98539s-21.05598 18.14707-29.62008 28.7489z"/></g><path d="m99.152881 487.69957v-141.24383h7.031249v5.625h7.96875v-5.625h3.39844 2.92969l.23437 141.71258z" fill="url(#A)" fill-rule="evenodd"/><path d="m77.745111 487.79559v-139.41994h7.03125v5.625h7.96875v-5.625l3.164062-.11719h2.929688l.46875 140.00588z" fill="url(#B)" fill-rule="evenodd"/><path d="m502.20052 486.95902v-138.57815h7.03125v5.625h7.96875v-5.625h3.39844 2.92969l.23437 136.96235z" fill="url(#C)" fill-rule="evenodd"/><path d="m480.79275 487.05504v-141.10353h7.03124v5.625h7.96875v-5.625l3.16407-.11719h2.92968l.46875 141.68947z" fill="url(#D)" fill-rule="evenodd"/><path d="m221.05729 405.81536c12.99327-16.32128 21.18008-26.32168 29.62008-26.13536s16.87404 8.81011 29.62008 24.39301v9.58296c-9.07921-7.98506-21.60667-27.10915-29.62008-27.00654s-21.05598 18.14707-29.62008 28.7489z" fill="#fff"/><path d="m200.3257 490.61967v-151.27539h7.01495v6.01875h7.95027v-6.01875h3.39056 2.9229l.23383 151.77696z" fill="url(#E)" fill-rule="evenodd"/><path d="m178.96756 490.72242v-150.7142h7.01495v6.01874h7.95028v-6.01874l3.15672-.1254h2.9229l.46766 151.34116z" fill="url(#F)" fill-rule="evenodd"/><path d="m400.95073 489.66612v-150.03862h7.01205v6.09036h7.94698v-6.09036h3.38916 2.92169l.23373 150.54614z" fill="url(#G)" fill-rule="evenodd"/><path d="m321.24285 405.37977c12.99327-16.32128 21.18008-26.32168 29.62008-26.13536s16.87404 8.81011 29.62008 24.39301v9.58296c-9.07921-7.98506-21.60667-27.10915-29.62008-27.00654s-21.05598 18.14707-29.62008 28.7489z" fill="#fff"/><path d="m379.60142 489.77008v-150.31921h7.01205v6.09035h7.94698v-6.09035l3.15543-.12689h2.92168l.46747 150.95363z" fill="url(#H)" fill-rule="evenodd"/><path d="m300.82092 489.45716v-152.95468h6.91197v7.20252h7.83356v-7.20252h3.34079 2.87999l.23039 153.55489z" fill="url(#I)" fill-rule="evenodd"/><path d="m280.55181 488.65453v-152.05985h6.65167v7.16788h7.53858v-7.16788l2.99325-.14934h2.77153l.44344 152.80652z" fill="url(#J)" fill-rule="evenodd"/></g><g fill="#2b5df2" stroke-linecap="round" stroke-linejoin="round" stroke-width="3"><path d="m351.73633 480.18945c-11.90805.0372-23.79772 1.67887-33.48828 5.08985-14.56259 4.37495-26.82043 1.60667-33.71289-.63477-18.57257-5.93364-48.57394-5.85643-67.00586.73438-13.61337 4.14381-25.87062 1.04433-32.80078-1.04883-18.61027-5.78536-48.61133-5.37564-68.29883 1.55469l.59961-.2168c-14.27352 4.30379-34.567684.26193-43.263675-2.17383 88.342245 122.97201 226.234375 174.90234 226.234375 174.90234s138.483-52.15823 226.80078-175.70117c-14.76925 4.13056-34.71434 4.13009-41.99219 1.94922-19.16008-5.93364-49.15843-5.85628-68.08007.88281-14.1031 4.29208-23.54541 1.52352-31.39454-.80078-9.76462-3.00825-21.68961-4.57433-33.59765-4.53711z"/><path d="m323.44621 631.09364c15.92345-5.60532 34.25646-4.99314 40.57882-4.499m-125.9418.76271c6.17028-1.49923 35.01549-2.75249 53.01922 2.79879m77.20313-19.5c12.11474-4.26459 23.61608-4.93028 29.23484-5.09607m-130.95358 5.09607c19.6875-6.93033 49.6875-7.00795 69.375-.9375m-132.52175-3.84254c4.49868.46346 15.84361-.77004 30.80299 3.84254m87.59376-18.625c19.6875-6.93033 49.6875-7.00795 69.375-.9375m-171.09376.9375c19.6875-6.93033 49.6875-7.00795 69.375-.9375m29.05469-30.5c19.6875-6.93033 49.6875-7.00795 69.375-.9375m-162.42187.9375c19.6875-6.93033 49.6875-7.00795 69.375-.9375m-154.19882-1.86932c4.44051-2.28994 41.46444-4.20113 61.15194 1.86932m209.76562.9375c18.9073-6.65569 38.76616-6.99104 50.11551-4.5661m-146.70144-32.4964c19.6875-6.93033 49.6875-7.00795 69.375-.9375m-162.42187.9375c19.6875-6.93033 49.6875-7.00795 69.375-.9375m-162.42188.9375c19.6875-6.93033 49.6875-7.00795 69.375-.9375m209.76562.9375c19.6875-6.93033 49.6875-7.00795 69.375-.9375m-109.3125 19.3125c19.6875-6.93033 49.6875-7.00795 69.375-.9375m-171.09374.9375c19.6875-6.93033 49.6875-7.00795 69.375-.9375m-171.09376.9375c19.6875-6.93033 49.6875-7.00795 69.375-.9375m132.0625 37.4375c19.6875-6.93033 49.6875-7.00795 69.375-.9375m-171.09374.9375c19.6875-6.93033 49.6875-7.00795 69.375-.9375m-169.66515.63458c19.69241-6.62836 48.54999-6.61527 67.94639-.63458m125.04688-70.8125c19.6875-6.93033 49.6875-7.00795 69.375-.9375m-162.42187.9375c19.6875-6.93033 49.6875-7.00795 69.375-.9375m-162.42188.9375c19.6875-6.93033 49.6875-7.00795 69.375-.9375m209.76562.9375c19.4761-6.85591 41.25939-8.303 60.78503-2.4563m-422.291795-.85826c7.09217-.96412 39.006765-3.69339 58.694265 2.37706"/></g></g><path d="m300.00001 658.5s298.5-112.32031 298.5-397.77183c0-285.451504 0-258.5516836 0-258.5516836h-597.00001v258.5516836c0 285.45152 298.50001 397.77183 298.50001 397.77183z" fill="url(#K)" fill-rule="evenodd"/><path d="m299.99999 658.39715s-298.49999-112.41841-298.49999-398.11925c0-285.700818 0-258.7775027 0-258.7775027h596.99999v258.7775027c0 285.70084-298.5 398.11925-298.5 398.11925z" fill="none" stroke="#000" stroke-width="3"/></svg>
