<svg height="660" width="600" xmlns="http://www.w3.org/2000/svg" xmlns:xlink="http://www.w3.org/1999/xlink"><radialGradient id="a" cx="221.44487" cy="226.33101" gradientTransform="matrix(1.35322 0 0 1.3489299 -77.62939 -85.746912)" gradientUnits="userSpaceOnUse" r="300"><stop offset="0" stop-color="#fff" stop-opacity=".313726"/><stop offset=".30000001" stop-color="#fff" stop-opacity=".25098"/><stop offset=".60000002" stop-color="#6b6b6b" stop-opacity=".12549"/><stop offset="1" stop-opacity=".12549"/></radialGradient><path d="m299.99999 658.5s-298.49999-112.43608-298.49999-398.18182v-258.81817h597.00001v258.81817c0 285.74574-298.50002 398.18182-298.50002 398.18182z" fill="#2b5df2" fill-rule="evenodd"/><g stroke-width=".99732" transform="matrix(1.001019 0 0 1.0043559 -.433872 -2.193078)"><g fill="#fcef3c" stroke="#000" stroke-width="1.111167" transform="matrix(1.7981408 0 0 1.7920373 234.70582 516.9342)"><g fill-rule="evenodd"><path d="m288.22656 628.45312c-.0173.0406-.0335 1.50643-.0508 1.54688-3.71103 8.68121-8.09061 13.40067-12.54492 17.65234 1.88963.90352 3.766 1.80397 5.46289 2.58985 3.36938-.99724 6.76536-2.72488 10.22461-5.61719.0267 4.04966.1898 7.45564.49219 10.4043 5.21171 2.23499 8.18945 3.36718 8.18945 3.36718s3.00426-1.14299 8.25195-3.39453c.30023-2.94939.45195-6.34938.44727-10.37695 3.45674 2.89022 6.84635 4.61765 10.20898 5.61523 1.69663-.78576 3.57361-1.68453 5.46289-2.58789-4.45137-4.25366-8.82152-8.97778-12.5332-17.66406-.0158-.037-.033-1.49802-.0488-1.53516z" stroke-width="1.994543" transform="matrix(.55617285 0 0 .5580355 -130.5655 -288.54867)"/><path d="m126.28125 7.9375c-34.941678 37.094566-47.110942 79.17815-20.625 133.34375 7.61231 15.5677 11.26935 32.81269 10.3329 51.85239-.007.13242-.0133 2.15323-.0204 2.28588h20.625c-.009-.16822-.0175-2.22452-.0256-2.39236-.91273-18.99537 2.73941-36.20749 10.33807-51.74591 26.48782-54.164676 14.31668-96.249184-20.625-133.34375z" stroke-width="3.69641" transform="matrix(.300607 0 0 .300607 -1.678333 0)"/><path d="m52.25 100c-35.235309.84534-58.7273133 60.01799 15.21875 88.875-24.344519-47.68797 20.543644-30.26926 26.803348 4.25053.02448.13498.04836 2.15849.07165 2.29399h17.531252c-.0214-.15621-.0429-2.20046-.0644-2.35621-9.73593-70.29628-37.037541-93.603667-59.5606-93.06331z" stroke-width="3.69641" transform="matrix(.300607 0 0 .300607 -1.678333 0)"/><path d="m198.96875 100c-22.24794.41661-48.6375 24.1701-58.18146 93.03384-.023.16554-.0458 2.21962-.0685 2.38568h17.5c.0365-.21207.0744-2.31178.11372-2.52257 6.41636-34.36787 51.08325-51.60454 26.79253-4.02195 74.89409-29.22698 49.82147-89.548708 13.84375-88.875z" stroke-width="3.69641" transform="matrix(.300607 0 0 .300607 -1.678333 0)"/></g><path d="m21.706974 58.178268h29.158859v4.771534h-29.158859z" stroke-width="1.111167"/></g><g id="b" stroke="#000" stroke-width="1.111167" transform="matrix(1.7981408 0 0 1.7920373 85.1943 516.9342)"><path d="m150.49414 521.35547c-8.60575 9.10548-14.64406 18.77239-17.32617 29.35547 11.20298 10.49662 22.53422 20.16754 33.74805 29.0332 6.63291-22.87787-.53981-41.58432-16.42188-58.38867z" fill="#fcef3c" fill-rule="evenodd" stroke="#000" stroke-width="1.994543" transform="matrix(.55617285 0 0 .5580355 -47.417663 -288.54867)"/><path d="m189.78125 570.94727c-6.19609.11563-12.98352 3.58463-18.81641 11.98046 10.71452 8.31131 21.27556 15.87383 31.48047 22.74024 13.67261-15.98662 2.23499-34.99877-12.66406-34.7207z" fill="#fcef3c" fill-rule="evenodd" stroke="#000" stroke-width="1.994543" transform="matrix(.55617285 0 0 .5580355 -47.417663 -288.54867)"/></g><g id="c" stroke="#000" stroke-width="1.111167" transform="matrix(1.7981408 0 0 1.7920373 -64.317226 268.92914)"><path d="m1.7421875 274.16602c.8839015 25.75088 4.2094056 50.04495 9.5117185 72.92968.285171-.64115.57717-1.27927.886719-1.91015 14.123582-28.78477 7.904147-51.23421-10.3984375-71.01953z" fill="#fcef3c" fill-rule="evenodd" stroke="#000" stroke-width="1.994543" transform="matrix(.55617285 0 0 .5580355 35.730177 -150.15587)"/><path d="m40.28125 322.94727c-9.647259.18005-20.731035 8.46692-27.402344 30.88671 1.649236 6.55467 3.469007 12.98506 5.431641 19.30469.0023-.034.0035-.13604.0059-.14844 3.467992-18.51355 27.611363-27.79818 14.482422-2.16601 40.47966-15.74422 26.928094-48.23987 7.482422-47.87695z" fill="#fcef3c" fill-rule="evenodd" stroke="#000" stroke-width="1.994543" transform="matrix(.55617285 0 0 .5580355 35.730177 -150.15587)"/><path d="m18.371094 373.33398c.893774 2.87228 1.810512 5.72674 2.765625 8.55079h6.078125v-8.55079z" fill="#fcef3c" stroke="#000" stroke-width="1.994543" transform="matrix(.55617285 0 0 .5580355 35.730177 -150.15587)"/></g><use height="100%" stroke-width="1.994543" transform="matrix(-1 0 0 1 600.4069 0)" width="100%" xlink:href="#c"/><g id="d" stroke="#000" stroke-width="1.111167" transform="matrix(1.7981408 0 0 1.7920373 -64.317226 20.924082)"><path d="m1.5 132.45312v44.75196c5.6108314-5.50982 8.2187731-11.74117 8.1992188-28.58008 6.7204252 5.61902 13.1874142 6.86359 19.6933592 6.83398-5.785009-5.57385-11.726821-10.17226-16.554687-21.4707-.01582-.037-.03304-1.49802-.04883-1.53516z" fill="#fcef3c" fill-rule="evenodd" stroke="#000" stroke-width="1.994543" transform="matrix(.55617285 0 0 .5580355 35.730177 -11.763063)"/><path d="m1.5 25.904297v100.445313h5.0664062c-.00486-.0906-.00929-1.19865-.013672-1.28906-.4933231-10.23258 1.4827262-19.50482 5.5878908-27.875003 14.181626-28.915486 7.862561-51.425806-10.640625-71.28125z" fill="#fcef3c" fill-rule="evenodd" stroke="#000" stroke-width="1.994543" transform="matrix(.55617285 0 0 .5580355 35.730177 -11.763063)"/><path d="m198.96875 100c-22.24794.41661-48.6375 24.1701-58.18146 93.03384-.023.16554-.0458 2.21962-.0685 2.38568h17.5c.0365-.21207.0744-2.31178.11372-2.52257 6.41636-34.36787 51.08325-51.60454 26.79253-4.02195 74.89409-29.22698 49.82147-89.548708 13.84375-88.875z" fill="#fcef3c" fill-rule="evenodd" stroke="#000" stroke-width="3.69641" transform="matrix(.300607 0 0 .300607 -1.678333 0)"/><path d="m1.5 125.33398v8.55079h25.714844v-8.55079z" fill="#fcef3c" stroke="#000" stroke-width="1.994543" transform="matrix(.55617285 0 0 .5580355 35.730177 -11.763063)"/></g><g id="e" stroke="#000" stroke-width="1.111167" transform="matrix(1.7981408 0 0 1.7920373 159.95006 392.93167)"><path d="m29.738807 62.150872c-.0096.02267-.01921.839966-.02883.862538-2.684853 6.301712-5.998127 8.865525-9.214838 11.975207 3.618431.01652 7.225043-.678341 10.962762-3.813951.06366 9.674934 1.458013 12.982212 4.819106 16.232778 3.322963-3.148967 4.858497-6.547149 4.847287-16.232778 3.737718 3.135613 7.334938 3.830472 10.953368 3.813951-3.217465-3.110408-6.52279-5.676089-9.207918-11.98102-.0088-.02064-.01757-.836002-.02635-.856725z" fill="#fcef3c" fill-rule="evenodd" stroke="#000" stroke-width="1.111167"/><path d="m126.28125 7.9375c-34.941678 37.094566-47.110942 79.17815-20.625 133.34375 7.61231 15.5677 11.26935 32.81269 10.3329 51.85239-.007.13242-.0133 2.15323-.0204 2.28588h20.625c-.009-.16822-.0175-2.22452-.0256-2.39236-.91273-18.99537 2.73941-36.20749 10.33807-51.74591 26.48782-54.164676 14.31668-96.249184-20.625-133.34375z" fill="#fcef3c" fill-rule="evenodd" stroke="#000" stroke-width="3.69641" transform="matrix(.300607 0 0 .300607 -1.678333 0)"/><path d="m52.25 100c-35.235309.84534-58.7273133 60.01799 15.21875 88.875-24.344519-47.68797 20.543644-30.26926 26.803348 4.25053.02448.13498.04836 2.15849.07165 2.29399h17.531252c-.0214-.15621-.0429-2.20046-.0644-2.35621-9.73593-70.29628-37.037541-93.603667-59.5606-93.06331z" fill="#fcef3c" fill-rule="evenodd" stroke="#000" stroke-width="3.69641" transform="matrix(.300607 0 0 .300607 -1.678333 0)"/><path d="m198.96875 100c-22.24794.41661-48.6375 24.1701-58.18146 93.03384-.023.16554-.0458 2.21962-.0685 2.38568h17.5c.0365-.21207.0744-2.31178.11372-2.52257 6.41636-34.36787 51.08325-51.60454 26.79253-4.02195 74.89409-29.22698 49.82147-89.548708 13.84375-88.875z" fill="#fcef3c" fill-rule="evenodd" stroke="#000" stroke-width="3.69641" transform="matrix(.300607 0 0 .300607 -1.678333 0)"/><path d="m21.706974 58.178268h29.158859v4.771534h-29.158859z" fill="#fcef3c" stroke="#000" stroke-width="1.111167"/></g><g id="f" stroke="#000" stroke-width="1.111167" transform="matrix(1.7981408 0 0 1.7920373 10.376191 -101.0784)"><path d="m29.738807 62.150872c-.0096.02267-.01921.839966-.02883.862538-2.684853 6.301712-5.998127 8.865525-9.214838 11.975207 3.618431.01652 7.225043-.678341 10.962762-3.813951.06366 9.674934 1.458013 12.982212 4.819106 16.232778 3.322963-3.148967 4.858497-6.547149 4.847287-16.232778 3.737718 3.135613 7.334938 3.830472 10.953368 3.813951-3.217465-3.110408-6.52279-5.676089-9.207918-11.98102-.0088-.02064-.01757-.836002-.02635-.856725z" fill="#fcef3c" fill-rule="evenodd" stroke="#000" stroke-width="1.111167"/><path d="m21.706974 58.178268h29.158859v4.771534h-29.158859z" fill="#fcef3c" stroke="#000" stroke-width="1.111167"/></g><use height="100%" stroke-width="1.994543" transform="matrix(-1 0 0 1 599.92525 -.000536)" width="100%" xlink:href="#d"/><g id="g" stroke="#000" stroke-width="1.111167" transform="matrix(1.7981408 0 0 1.7920373 10.438548 392.93166)"><path d="m75.744141 397.35547c-18.885699 19.98239-25.463879 42.65172-11.148438 71.83008.500263 1.01965.967863 2.05312 1.404297 3.09961 4.90776 7.32729 9.996628 14.41752 15.234375 21.27343.06323-8.85677 2.023019-16.96829 5.65625-24.37304 14.316455-29.17786 7.739216-51.84769-11.146484-71.83008z" fill="#fcef3c" fill-rule="evenodd" stroke="#000" stroke-width="1.994543" transform="matrix(.55617285 0 0 .5580355 -5.843749 -219.35226)"/><path d="m115.03125 446.94727c-11.98282.22363-26.186954 12.93891-31.390625 49.73632.434374.55797.872324 1.11121 1.308594 1.66602h8.05664c.01973-.11424.03929-1.24583.06055-1.35938 3.467992-18.51355 27.611361-27.79818 14.482421-2.16601 40.47966-15.74422 26.92809-48.23987 7.48242-47.87695z" fill="#fcef3c" fill-rule="evenodd" stroke="#000" stroke-width="1.994543" transform="matrix(.55617285 0 0 .5580355 -5.843749 -219.35226)"/><path d="m84.152344 497.33398c2.260616 2.89244 4.546355 5.7432 6.855468 8.55079h10.957028v-8.55079z" fill="#fcef3c" stroke="#000" stroke-width="1.994543" transform="matrix(.55617285 0 0 .5580355 -5.843749 -219.35226)"/></g><use height="100%" stroke-width="1.994543" transform="matrix(-1 0 0 1 600.65688 0)" width="100%" xlink:href="#g"/><use height="100%" stroke-width="1.994543" transform="matrix(-1 0 0 1 600.65331 -.000003)" width="100%" xlink:href="#b"/><use height="100%" transform="translate(-74.755776 -124.00253)" width="100%" xlink:href="#e"/><use height="100%" transform="translate(149.51151 .000003)" width="100%" xlink:href="#e"/><use height="100%" transform="translate(74.755774 -124.00253)" width="100%" xlink:href="#e"/><use height="100%" transform="translate(224.26726 -124.00253)" width="100%" xlink:href="#e"/><use height="100%" transform="translate(-149.51153 -248.00506)" width="100%" xlink:href="#e"/><use height="100%" transform="translate(.000034 -248.00506)" width="100%" xlink:href="#e"/><use height="100%" transform="translate(149.5115 -248.00506)" width="100%" xlink:href="#e"/><use height="100%" transform="translate(299.02306 -248.00506)" width="100%" xlink:href="#e"/><use height="100%" transform="translate(-74.755762 -372.00759)" width="100%" xlink:href="#e"/><use height="100%" transform="translate(74.755738 -372.00759)" width="100%" xlink:href="#e"/><use height="100%" transform="translate(224.26727 -372.00759)" width="100%" xlink:href="#e"/><use height="100%" transform="translate(149.51153 -.000007)" width="100%" xlink:href="#f"/><use height="100%" transform="translate(299.02306 -.000004)" width="100%" xlink:href="#f"/><use height="100%" transform="translate(448.53459 -.000007)" width="100%" xlink:href="#f"/></g><g stroke-width=".995667" transform="matrix(1.0043245 0 0 1.0043794 -1.297343 -1.08941)"><path d="m270.9485 142.5v106.25h58.10301v-106.25h91.02805v106.25h58.10302v-106.25h53.06742v-31.25h-462.5v31.25h53.06742v106.25h58.10302v-106.25z" fill="#e20909" stroke="#000" stroke-width="2.489167"/><g id="h" stroke="#000" stroke-linecap="round" stroke-linejoin="round" stroke-width=".63788" transform="matrix(.78016803 0 0 .78073205 65.637063 42.628172)"><g id="i" fill="#fcef3c" stroke="#000" stroke-linecap="round" stroke-linejoin="round" stroke-width="1.58896" transform="matrix(.58473 0 0 .39688 44.920757 61.360697)"><use height="660" stroke-linecap="round" stroke-linejoin="round" stroke-width="1.58896" transform="translate(22.911681 10.750935)" width="600" xlink:href="#j"/><use height="660" stroke-linecap="round" stroke-linejoin="round" stroke-width="1.58896" transform="translate(-22.911681 10.750935)" width="600" xlink:href="#j"/><g id="j" stroke="#000" stroke-linecap="round" stroke-linejoin="round" stroke-width="1.58896"><path d="m444.88404 392.2242v47.83994l-5.24591-4.14219v-44.56476z" fill-rule="evenodd" stroke-linecap="round" stroke-linejoin="round" stroke-width="1.547053" transform="matrix(1.05491 0 0 1 -23.993107 10.078568)"/><path d="m441.53712 391.81276 3.41604 1.69052 2.59216-2.81197-4.21281-1.72503z" fill-rule="evenodd" stroke-linecap="round" stroke-linejoin="round" stroke-width="1.547053" transform="matrix(1.05491 0 0 1 -23.993107 10.078568)"/><path d="m443.33251 383.11547 4.20075 2.21629v5.35587l-4.20074-1.72135zm-14.37145 9.10873v47.72141l5.1317-4.29714v-44.44622z" fill-rule="evenodd" stroke-linecap="round" stroke-linejoin="round" stroke-width="1.547053" transform="matrix(1.05491 0 0 1 -23.993107 10.078568)"/><path d="m432.29074 391.81276-3.3988 1.69052-2.59216-2.81197 4.20773-1.72503z" fill-rule="evenodd" stroke-linecap="round" stroke-linejoin="round" stroke-width="1.547053" transform="matrix(1.05491 0 0 1 -23.993107 10.078568)"/><path d="m430.50751 383.11547-4.19567 2.21629v5.35587l4.19567-1.72135z" fill-rule="evenodd" stroke-linecap="round" stroke-linejoin="round" stroke-width="1.547053" transform="matrix(1.05491 0 0 1 -23.993107 10.078568)"/><path d="m430.47557 388.92665 1.72833 2.88711h9.41469l1.72469-2.89981zm.0214-5.81168h2.42998v2.67292h2.72698v-2.67292h2.49298v2.67292h2.66397v-2.67292h2.511v5.77492h-12.82491z" fill-rule="evenodd" stroke-linecap="round" stroke-linejoin="round" stroke-width="1.547053" transform="matrix(1.05491 0 0 1 -23.993107 10.078568)"/><path d="m432.29074 391.81276-.0209 46.23797h9.27586l-.009-46.23797z" fill-rule="evenodd" stroke-linecap="round" stroke-linejoin="round" stroke-width="1.547053" transform="matrix(1.05491 0 0 1 -23.993107 10.078568)"/><path d="m434.88048 410.05514s-.0693-5.70409-.0414-8.46006c.0278-2.75468 1.03815-3.59967 2.07548-3.55973 1.03731.0399 2.0045.70759 2.04977 3.62688.0452 2.91826-.0127 8.39582-.0127 8.39582l-4.0711-.002z" fill="#e20909" fill-rule="evenodd" stroke-linecap="round" stroke-linejoin="round" stroke-width="1.547053" transform="matrix(1.05491 0 0 1 -23.993107 10.078568)"/></g><g stroke-linecap="round" stroke-linejoin="round" stroke-width="1.58896"><path d="m413.57954 511.45311-10.69823 2.64801 4.10449 3.44161v32.27031l-6.03591 5.17894v10.5363l11.39234 6.09043h19.84228c-.0431-3.56737-.12175-8.03994-.0754-11.69306.13113-4.36422 1.95731-6.96627 4.82809-7.18141 3.02715.10655 4.6593 3.28957 4.75354 7.30684.0749 3.85305.0181 8.09385-.0151 11.56763h19.8121l11.40743-6.09043v-10.5363l-6.03588-5.17894v-32.27031l4.08937-3.44161-10.68314-2.64801h-46.68595z" fill-rule="evenodd" stroke-linecap="round" stroke-linejoin="round" stroke-width="1.47716" transform="matrix(1.1571 0 0 1 -68.643767 -70.55344)"/><path d="m400.99224 554.98972 11.38738 5.98602v10.56702m-5.37963-21.72168 10.91962 2.68029m-5.59251 8.47079 5.57737-8.45502m.004-.0842v-36.88m-4.22833-4.07892 3.58741 3.35959m-10.29013 2.72819 10.97174-2.10885m54.90456 39.53673-11.38738 5.98602v10.56702m5.37963-21.72168-10.91962 2.68029m5.59251 8.47079-5.57736-8.45502m-.004-.0842v-36.88m4.22833-4.07892-3.58741 3.35959m10.29013 2.72819-10.97174-2.10885m-38.0059 37.05924h38.04899m-38.049-37.05501h38.04899m-13.19099 45.5064h18.59694m-48.86138 0h18.59694m5.70951-22.38886c-3.89241-.0928-7.93896 3.99993-8.04673 10.60929-.10786 6.61244.16598 22.42094.16598 22.42094h3.27435c-.0431-3.53325-.12169-18.02448-.0754-21.63489.13374-4.34794 1.9776-6.90666 4.82809-7.11801 3.00539.10259 4.65858 3.2367 4.75354 7.24212.0749 3.81255.0181 18.08732-.0151 21.52457h2.98766s.22051-15.26743.0452-22.26925c-.17531-7.00427-4.02525-10.6819-7.91763-10.77477z" fill-rule="evenodd" stroke-linecap="round" stroke-linejoin="round" stroke-width="1.47716" transform="matrix(1.1571 0 0 1 -68.643767 -70.55344)"/><g stroke-linecap="round" stroke-linejoin="round" stroke-width="1.58896"><path d="m436.37382 623.77992-3.66803.98284v7.17806l5.32921-1.42796v-4.62071z" fill-rule="evenodd" stroke-linecap="round" stroke-linejoin="round" stroke-width="3.183186" transform="matrix(.55871 0 0 .44598 229.05451 156.85171)"/><path d="m419.93405 616.54401 8.47304 3.74946v6.26747l7.95841 2.49964v-5.25659l6.48802 2.86723v15.91681l-22.96658-5.37823.0471-20.66579zm-112.21339 7.23591 3.66804.98284v7.17806l-5.32921-1.42796v-4.62071z" fill-rule="evenodd" stroke-linecap="round" stroke-linejoin="round" stroke-width="3.183186" transform="matrix(.55871 0 0 .44598 229.05451 156.85171)"/><path d="m324.16043 616.54401-8.47304 3.74946v6.26747l-7.9584 2.49964v-5.25659l-6.48803 2.86723v15.91681l22.96658-4.82016-.0471-21.22386z" fill-rule="evenodd" stroke-linecap="round" stroke-linejoin="round" stroke-width="3.183186" transform="matrix(.55871 0 0 .44598 229.05451 156.85171)"/><path d="m343.46875 616.5625h-19.4375v20.96875h96.03125v-20.96875h-19.25v8.65625h-19.28125v-8.65625h-18.75v8.65625h-19.3125z" stroke-linecap="round" stroke-linejoin="round" stroke-width="3.183186" transform="matrix(.55871 0 0 .44598 229.05451 156.85171)"/></g></g><path d="m293.375 239.5c-.91787-.0202-1.81913.42235-1.84375 1.8125-.0246 1.3908.0312 4.25.0312 4.25h3.625s.0399-2.74605 0-4.21875c-.0401-1.47322-.89462-1.8236-1.8125-1.84375zm13.90625 0c-.91787-.0202-1.81913.42235-1.84375 1.8125-.0246 1.3908.0312 4.25.0312 4.25h3.59375s.0713-2.74605.0312-4.21875c-.0401-1.47322-.89463-1.8236-1.8125-1.84375zm-6.96875 9.5c-1.62954-.0292-3.20629.57758-3.25 2.59375-.0438 2.01712.0625 8.57031.0625 8.57031h6.40625s.10234-6.37191.0312-8.50781c-.0711-2.13664-1.62047-2.627-3.25-2.65625z" fill="#e20909" fill-rule="evenodd" stroke-linecap="round" stroke-linejoin="round" stroke-width=".765458" transform="matrix(1.71019 0 0 2.51964 -76.822851 -154.60699)"/></g><use height="100%" stroke-width=".63788" transform="translate(0 -46.196969)" width="100%" xlink:href="#i"/><use height="100%" stroke-width=".63788" transform="translate(-.006501 -92.394136)" width="100%" xlink:href="#i"/></g><g stroke-width=".995667"><use height="100%" transform="translate(-149.10919 .000713)" width="100%" xlink:href="#h"/><use height="100%" transform="translate(149.15295 .000713)" width="100%" xlink:href="#h"/></g></g><g><path d="m0 0v258.81836c0 285.74543 298.5 398.18164 298.5 398.18164s298.5-112.43621 298.5-398.18164v-258.81836zm80 79.828125h437v189.113285c0 209.48567-218.5 291.45507-218.5 291.45507s-218.5-81.9694-218.5-291.45507z" fill="#fcef3c" fill-rule="evenodd" transform="translate(1.5 1.5)"/><g stroke="#000"><path d="m74.7499 41.750001a32.49995 32.498212 0 1 1 -64.9999 0 32.49995 32.498212 0 1 1 64.9999 0z" fill="#e20909" stroke-width="2.5"/><path d="m590.24985 41.750001a32.499925 32.500013 0 1 1 -64.99985 0 32.499925 32.500013 0 1 1 64.99985 0z" fill="#e20909" stroke-width="2.5"/><path d="m-487.55323 632.07844a32.49995 32.500038 0 1 1 -64.9999 0 32.49995 32.500038 0 1 1 64.9999 0z" fill="#e20909" stroke-width="2.5" transform="translate(820.05313 -25.828314)"/><path d="m81.5 81.327691v189.318399c0 209.0172 218.5 291.25119 218.5 291.25119s218.5-82.23399 218.5-291.25119v-189.318399z" fill="none" stroke-width="3"/></g></g><path d="m299.99993 658.49998s298.5001-112.43609 298.5001-398.18182v-258.8181601h-597.00007v258.8181601c0 285.74573 298.49997 398.18182 298.49997 398.18182z" fill="url(#a)" fill-rule="evenodd" opacity=".8"/><path d="m299.99996 658.39715s-298.4999598-112.4185-298.4999598-398.11954v-258.7776846h596.9999598v258.7776846c0 285.70104-298.5 398.11954-298.5 398.11954z" fill="none" stroke="#000" stroke-width="3"/></svg>
