<?xml version="1.0" encoding="UTF-8"?>
<svg xmlns="http://www.w3.org/2000/svg" xmlns:xlink="http://www.w3.org/1999/xlink" width="900" height="600">
<g>
<rect width="525" height="375" fill="#ed2939"/>
<path d="M0,0V75H525V150H0V225H525V300H450L300,150 450,0H375V375H300V0H225V375H150V0H75V375H0V300L150,150z" fill="#fff"/>
<rect width="390" height="240" x="30" y="30" fill="#0045b1"/>
<g id="fleur" fill="#ffd203">
<path d="m78.2807 137.554c-13.1118-4.96138-19.5666-12.4712-20.2597-23.073-0.444493-6.37344 6.20974-13.849 13.3334-14.0217 22.2543-0.575395 29.6944 34.1118 29.5602 42.5784-0.939564-0.003-5.56889-0.0909-6.71735-0.0484-1.01427-5.34691-0.14321-11.8972-7.25434-17.421-7.11114-5.52367-10.2551-1.31456-11.1441 2.08464-0.888973 3.39919 3.28227 10.2466 2.48182 9.90104z"/>
<path d="m137.719 137.554c13.1118-4.9615 19.5666-12.4712 20.2597-23.073 0.44449-6.37356-6.20975-13.8491-13.3334-14.0217-22.2542-0.575511-29.6944 34.1118-29.5602 42.5784 0.93956-0.003 5.56889-0.091 6.71735-0.0485 1.01428-5.34691 0.14321-11.8972 7.25435-17.4209 7.11115-5.52367 10.2551-1.31466 11.1441 2.08464 0.88899 3.39907-3.28227 10.2466-2.4818 9.90104z"/>
<path d="m107.815 60c-15.1217 15.0323-19.1823 30.3211-9.10011 54.8122 3.45851 8.18023 4.92219 17.9958 4.78015 28.1985 1.46368 0.0324 7.69497-0.0356 9.17095-0.13579-0.12963-10.0787 1.61823-20.6855 5.06433-29.0017 11.6756-25.0106 3.26108-41.9759-9.51392-53.8732h-0.2007z"/>
<path d="m99.8705 148.787c-3.09598 7.89969-8.56042 10.8854-13.0271 12.9775 6.80798 3.0815 14.6766-0.26519 16.1574-1.85849-0.18009 2.22746-0.36453 8.24671 0.48593 12.3121 0.57599 3.2782 2.03393 5.16669 4.49537 7.78216 2.55138-2.55536 4.12934-4.61457 4.9798-7.51841 1.03335-4.21561-0.0601-10.1953 0.0314-12.4282 1.18066 1.38833 10.5973 4.72942 16.7934 1.82559-5.76877-2.40367-11.359-5.20228-13.1786-13.2399-0.67459 0.0397-15.0367 0.0315-16.7376 0.0315z"/>
<rect height="5.09545" width="35.8305" y="143.247" x="90.2755"/>
</g>
<use xlink:href="#fleur" x="117" y="60"/>
<use xlink:href="#fleur" x="234"/>
</g>
<g>
<path d="M17,322H432V578H17z" fill="#0045b1"/>
<path d="M277,322H433V418zM17,322H147L433,498V578zM17,402V482L173,578H303z" fill="#ffd203"/>
<path d="M0,300H525V600H0zM30,330V570H420V330z" fill="#ed2939"/>
</g>
<g>
<rect width="450" height="600" x="450" fill="#0045b1"/>
<g stroke="#ffd203" stroke-width="30">
<path id="bill" d="M495,-30v60M585,70v60M675,-30v60M765,70v60M855,-30v60"/>
<use xlink:href="#bill" y="200"/>
<use xlink:href="#bill" y="400"/>
<use xlink:href="#bill" y="600"/>
</g>
<g stroke="#000" stroke-width="2.722" stroke-linecap="round">
<g fill="#ed2939">
<path d="m561.752 111.33c4.00847-9.09428 1.12627-11.9002-4.38208-14.6148 4.86047-2.70923 13.252-1.6577 16.7128 4.67948 4.54793 8.32822 0.79186 15.4495-2.31725 18.3891l-10.0135-8.45379z"/>
<path d="m533.987 111.275c-1.66208-8.97595 0.14215-13.1071-14.7992-12.6355 1.72313-2.57914 8.74777-10.3373 19.8684-6.01107 6.5672 2.55475 7.69256 10.181 8.29944 14.8669l-13.3686 3.77973z"/>
<path d="m517.53 130.658c-5.68514-6.94876-4.60716-16.2355-18.6-8.14032 4.7566-14.3619 13.1864-14.7458 18.2036-12.444 6.32483 2.90255 10.8472 6.94425 10.8472 6.94425l-10.4508 13.6401z"/>
<path d="m543.363 173.035c-13.4178 8.22524-26.9732 6.81779-30.8642-11.1775 8.81612 5.54582 16.0613 5.8358 22.4727-2.15185l8.39148 13.3293z"/>
<path d="m533.349 301.767c-3.6121-3.56924-7.80192-4.5738-13.8087-2.0344 1.19279-3.47529 6.85242-9.56586 12.9084-8.96963 4.84226 0.47698 9.73554 4.49791 9.73554 4.49791l-8.83525 6.50612z"/>
<path d="m518.168 329.274c-11.2445-2.05157-15.7642-0.10479-21.6425 6.2613-0.64423-1.82392 0.83104-11.0392 6.85698-15.2255 6.15078-4.27206 14.7345-3.30454 14.7345-3.30454l0.051 12.2687z"/>
<path d="m525.512 349.609c-11.3539 2.55746-12.4228 10.8306-13.3604 16.6212-2.47307-1.21685-7.9459-7.56487-5.6159-15.8651 2.18422-7.78258 11.9398-11.1495 11.9398-11.1495l7.0365 10.3934z"/>
<path d="m545.195 357.568c-3.46813 7.50434-4.76845 12.8876-0.0446 20.4389-2.62889-0.11383-11.9708-1.61975-14.5414-8.90549-2.10949-5.98034 0.94768-11.1052 2.61158-14.5073l11.9744 2.97392z"/>
<path d="m595.558 496.869c4.0823 9.09971 0.72534 12.2055-5.74438 15.314 2.78289 1.17891 11.1671 1.61976 15.4152-3.07508 4.66822-5.15919 3.77066-14.4504 3.17198-14.4504l-12.8428 2.21146z"/>
<path d="m575.065 501.205c-6.11889 1.31079-12.1977 5.44645-11.3092 14.9003-2.66899-1.14187-8.23475-6.68498-5.8118-13.874 2.24708-6.66781 10.1592-10.3075 10.1592-10.3075l6.96177 9.28128z"/>
<path d="m563.301 484.267c-6.6319-2.37498-11.3065-5.62622-19.4474 2.85557-0.45562-2.23766-2.30359-8.75551 5.54846-14.5172 5.7234-4.19979 12.8419-2.84925 15.2858-2.22411l-1.38688 13.8858z"/>
<path d="m568.595 464.69c-4.6263-6.1303-6.16171-10.0139-16.4677-6.54586 0.30981-1.28821 4.83588-10.3834 13.8269-9.96695 6.43144 0.29811 10.1711 4.22961 10.4144 5.98126-1.88532 2.23133-4.66638 6.08513-7.77367 10.5316z"/>
<path d="m777.603 522.073c-2.18057 5.21429-1.49168 11.0573 4.6263 15.5868-2.59791 1.29364-10.1556 1.76249-14.4566-4.50333-3.99937-5.82587-1.80332-9.64082-0.94676-11.8134l10.7771 0.72993z"/>
<path d="m757.875 520.411c-7.96503 3.93873-9.99979 10.6626-8.47349 17.7405-1.82701-0.4553-8.99654-3.08503-9.05577-12.7701-0.0583-9.69413 7.42285-12.5443 7.42285-12.5443l10.1064 7.5739z"/>
<path d="m747.633 506.354c-7.41556-4.9207-11.9735-3.84478-16.7875 5.83219-0.69892-1.12832-3.98662-10.7321 2.66898-16.7405 4.76115-4.29735 10.6832-3.05611 12.1047-1.98833l2.01381 12.8966z"/>
<path d="m755.77 486.498c-6.62552-6.45463-10.6668-6.06888-16.6171-2.06874 0.36176-2.97842 4.16795-10.3978 10.3935-11.6969 6.84057-1.42823 13.2492 3.3696 14.2087 4.50152-3.0043 3.41657-5.98584 6.80966-7.98507 9.26413z"/>
<path d="m685.565 155.702c-31.8856 1.60169-32.3139 13.7891-52.606 12.1314-15.0234-1.22678-19.8866-13.9481-19.605-20.3232 11.2491 12.4729 17.06 13.7385 29.6221 10.2759 16.2873-4.48707 32.0588-18.2943 42.5889-2.08408z"/>
</g>
<g fill="#ffd203">
<path d="m555.154 182.394c-0.031 4.91887-0.0875 10.1521-1.71037 14.52 3.05626-2.22141 5.97308-5.14564 6.72576-8.59834 3.21754 7.71845-3.31504 17.1172-3.90825 25.0109 2.45576-2.45719 8.08166-5.82588 9.69179-9.30206 3.02528 9.42672-6.70024 10.2651-4.0103 28.4907 2.5168-6.14658 7.52855-10.8658 9.90868-14.9988 3.02254 11.1377-5.44641 10.8071-1.99832 30.1972 1.78145-4.98664 6.98363-12.7647 9.68906-14.4098 1.4771 2.23133 3.42986 10.733 5.66692 13.3338 2.86581-14.2734 11.2719-0.11112 15.5246 1.86366 19.4018-3.44909 32.0979-15.9961 33.5705-43.7677 0 0-1.91723-3.33074-6.39317-7.29747-4.86048-4.30638-11.1771-8.37429-18.2992-13.8731-8.03884-6.2071-14.6452-11.2037-20.7003-17.9022-6.05509-6.69853-8.73137-12.4521-12.6697-17.1262-5.54481-6.5811-8.97467-13.6347-8.81064-16.7477 0.19955-3.80864 4.00119-4.48074 5.94575-10.3771 2.31361-7.01652-4.38938-15.3944-11.4004-14.9716-3.99663 0.2412-5.10742 7.47092-7.37273 8.73564-0.53398 0.29811-1.14541 0.36136-1.89535 0.066-3.9292-1.54658 0.49662-12.8803-5.98675-13.9481-6.48429-1.06689-11.8733 0.41735-16.002 6.43746-3.3196 4.83938 6.18176 9.2334 6.26833 12.266 0.0191 0.67934-1.49715 1.52129-2.18512 1.44089-0.4547-0.0533-6.77042-8.21892-12.4401-6.91264-4.41854 1.01811-9.53598 5.56571-8.72408 12.6084 0.70255 6.08966 8.63569 7.25772 12.4264 8.01927 4.49416 0.90338 13.4287 14.6961 12.0628 20.4082-0.69254 4.64335-7.51216 2.15635-9.48952 7.36974-2.53594 6.68588 2.14958 14.8777 8.32588 14.5308 4.62082-0.26017 10.07-5.68675 12.1603-5.68675 5.02268 0.44084 6.06421 5.15828 6.02958 10.621z"/>
<path d="m651.544 340.991c-5.96306 2.94953-17.1575 9.57488-25.1353 12.8361-17.3051 7.07343-29.8946 20.8761-28.6499 34.9498 0.53398 6.03997 0.65244 10.2741-1.34952 13.557-4.9097 8.05089-16.7465 9.39421-17.7926 9.42041 8.0434 4.92068 14.0876 5.19803 21.741 0.0714 9.16876-6.14024 14.1768 13.5741 20.8826 21.1833 2.2644 2.56921-4.35566 7.74104-12.6168 12.8026-2.68812 1.64685-7.28343 7.45376-9.7893 9.33278-2.59517 1.94587-6.90437 3.40121-8.80063 3.03986-1.96095-0.37309-9.86402-4.87462-14.8785-4.53585-4.66731 0.31618-9.81939 3.33707-9.87771 7.31282-0.092 6.34261 7.91674 5.58738 9.43485 7.19539 1.46707 1.55562 0.23418 3.78424-1.36958 3.53672-1.90264-0.2945-8.80336-4.1501-11.8077-1.74081-2.26348 1.81579-3.70503 4.91528-2.67627 11.4494 0.87205 5.53859 9.82575 3.67402 13.1171 2.60714 2.67901-0.86905 3.0353 1.92509 1.58554 3.07599-1.55911 1.23944-10.6705 3.29823-10.1447 7.07795 0.52577 3.77882 5.08828 7.99669 10.4791 8.84677 4.23811 0.66759 14.3746-8.78986 15.8471-9.84319 1.7532-1.25388 3.44079-2.5692 4.20531-2.24038 5.19217 2.22593-2.94873 7.10957 0.89209 9.5785 4.08139 2.6225 8.60107 1.16806 12.8629 0.18519 8.75597-2.01994 0.23419-16.5083 2.06211-17.3674 3.13553-2.58727 9.42937-3.04889 12.1731-5.21609 4.60169-3.63519 13.5235 0.64862 19.349-1.178-2.38013-2.69387-6.15898-6.70757-2.76466-7.49079 2.21701-0.51132 10.85 4.3371 17.4554 2.80136-5.28512-3.15459-8.78422-8.28305-6.7212-10.3662 1.19553-1.20781 5.84642 1.87812 8.48807 2.25754 4.69555 0.67392 9.30271-0.13099 15.623-3.3172-3.5629-1.03707-8.45072-3.94865-8.28123-6.06617 0.2597-3.24854 5.34799-2.06421 6.59363-9.43395 0.78548-4.64606-3.37609-8.15478-5.2277-10.0925-8.49263-8.8847-16.1287-34.378 7.93678-50.9838 13.088-9.03105 34.1646-6.69672 35.3738-9.78899 9.63712-24.6495-12.0109-47.9349-21.9032-53.9252-6.0314-3.65325-17.327 11.0754-36.316 20.4687z"/>
<path d="m790.843 505.469c0.58865-1.20692 1.99012-3.09678 2.3619-3.50781 2.00469-2.21238 3.26947-3.44909 4.38481-5.31005 1.87894-3.13381 2.28991-6.12308 5.44184-7.30469 4.96072-1.85915 13.6465-5.35341 15.838-9.04099-4.87416 0.21048-12.6615 0.30353-12.7472-1.88896-0.0702-1.79501 1.14815-3.21693 2.31543-4.0941 1.99012-1.49509 15.6931-3.44368 21.1587-8.28486-4.67095-0.0217-13.5445-1.33158-14.7701-2.95494-0.36631-0.48422 0.99142-3.99203 2.83939-4.07423 5.22771-0.23307 16.1834-0.54925 21.9706-9.94437-10.5775 2.02176-15.8353-1.34783-15.4225-4.38499 1.22196-8.97775 8.04978-10.2045-0.60231-17.7333-2.43115-2.11571-12.574-3.80593-11.886-9.21083 0.36358-2.86641 8.57738-8.18729 12.5859-10.5144-2.60975-0.21863-7.65704 0.0334-11.4177 1.22858-3.17288 1.00907-6.99639 3.84206-12.0145 3.27745-3.10454-0.34961-7.08659-3.92065-10.9575-7.73832-4.24358-4.18714-7.75727-10.0492-12.9668-19.9863-1.04792-1.99736-6.64648-18.9537-4.91151-18.6854 17.6176 4.88817 39.6575 10.4891 55.2258-12.4982 6.323-9.33729 6.72394-23.3188 5.03088-33.7203-1.20828-7.42755-2.18421-19.1994-1.74955-24.4056 0.67066-8.02289 3.3688-6.35977 2.21246-16.1198-3.20935 4.73279-5.93847 5.95597-10.0736 11.2633-0.65426-11.7123 12.8301-20.6096 10.1438-29.1438-6.07333 10.125-11.8842 11.9092-17.3589 20.2826-0.34718-7.29747 2.74552-14.3068 8.58374-19.7993 6.13165-5.76805 9.72553-11.9164 8.01242-19.7668-6.96086 14.7819-15.5082 12.6147-25.4414 29.2865-1.4288-9.40233 5.8118-17.7107 12.4136-24.0867 8.9045-8.59924 14.1468-16.2499 11.9462-24.3342-2.86946 5.31998-8.60471 11.6897-15.5018 17.25-7.47387 6.02642-12.1794 12.2091-17.0208 21.6178-2.80384-13.7918 10.562-26.6559 14.8657-30.5684 8.80974-8.00933 18.2282-20.1896 15.6057-28.3922-3.06719 5.25945-11.5607 15.2165-19.2187 20.8544-7.54223 5.55305-15.5473 16.8778-19.8119 24.8221-2.61887-10.3003 10.0034-27.5548 17.9912-34.6445 9.47038-8.40592 24.8501-22.4778 22.4198-33.3752-1.96551 5.57112-19.3244 20.9945-26.4283 26.29-7.03922 5.24681-15.4015 16.1795-19.482 25.9883-2.68265-8.95968 5.96306-24.8916 14.2033-34.2298 8.53545-9.67245 18.8086-18.2211 24.6432-23.3758 11.6218-10.2678 29.1118-26.2918 30.3393-50.4328 0.72989-14.3483-7.39005-29.3886-22.5364-35.2398-8.88263-3.43103-21.7829-3.65868-30.6081-1.46709-8.59011 2.13378-17.0782 6.27033-23.5078 15.4875-5.14478 7.37788-6.64831 15.9536-5.94119 22.588 1.18095 11.0781 6.04507 15.9256 6.24554 26.2069 0.0957 5.19169-0.4301 11.3066-3.41163 18.6312-2.42568 5.95686-5.62956 10.4557-9.63896 13.4305 5.20493-0.25566 10.0098-1.2304 14.5833-3.63428 8.83069-4.64336 16.1241-14.7539 17.4463-22.0279 2.33912-12.8668-3.93011-23.3026-3.62849-35.3943 0.19044-7.59829 6.9335-17.7333 19.2679-18.185 16.3383-0.59712 22.5693 8.882 22.0945 20.0784-0.47566 11.2335-8.71862 22.906-19.5057 32.4619-9.26808 8.20989-19.0364 16.2038-28.6471 26.1392-7.49484 7.74917-22.2303 24.1482-22.2011 45.4073 0.02 15.754 4.96345 28.3705 12.4838 39.6618 7.52127 11.2913 16.9916 22.5302 22.6695 26.6595 20.0588 18.1136 22.5501 54.8729 0.33442 56.4122-11.343 0.78504-25.5745-1.55109-31.143-15.4143-3.89641-9.69865-7.37637-19.512-14.7664-29.5838-5.67693-7.73832-20.6128-20.8336-21.6626-31.3544-1.36957-13.6356-1.99741-28.2115-1.32492-35.3383 1.8425-19.5274-4.71833-37.7006-23.4732-43.5075-11.0878-3.43283-42.2308-6.78797-59.8083 13.4901-8.98104 10.3608-11.65 24.3821-19.3444 38.1107-7.69257 13.7295-7.98325 9.42763-14.7783 16.0566-6.79594 6.62806-12.9686 11.7945-14.9295 13.1242-3.92101 2.65954-5.31154 3.20609-11.8906 8.42399-6.57906 5.21789-12.4492 10.0871-13.5363 11.3545-2.17327 2.53398-14.0238 7.4908-16.6982 7.25411-1.65023-0.14544-6.53714-8.04456-10.0672-8.60555-4.42401-0.70373-14.719 2.63334-14.7017 8.18639 0.009 2.97391 8.13998 5.59551 6.94902 8.96059-0.81008 2.29005-7.1021 4.69303-9.93511 4.12119-1.61924-0.32701-6.33119-2.88899-10.1192-1.77965-7.07749 2.07416-8.99289 12.3293-4.67003 16.2002 2.19787 1.96756 10.4909-0.71908 11.7639-0.0262 1.44247 0.78503 2.37009 1.40836 1.6475 3.0218-0.78366 1.75074-11.1388 1.54476-12.3872 3.83031-4.24905 7.78167 2.34913 18.5653 10.3488 14.8777 2.6872-1.23852 5.23499-3.26841 7.021-4.62438 1.58462-1.20239 3.12368 0.21952 3.30866 1.09308 0.4219 1.98834-6.92077 6.84579-5.84643 9.85132 2.06666 5.78071 14.5997 6.99213 17.5156 2.05067 2.26257-3.83484 6.83419-12.9092 7.70623-14.1478 0.43557-0.61882 3.44535-1.39753 8.19739-3.06606 4.75204-1.66944 6.00953-0.61701 9.91961-2.68302 5.33431-2.81945 9.26352 5.69668 16.4285 6.13572-1.56365-4.08506-2.21427-8.27402 0.72078-11.5198 4.87871 4.36782 14.6261 7.49802 21.1906 7.66243-1.61925-2.10215-3.0025-4.37234-3.20297-6.8503 4.50147 3.95047 10.388 4.64517 12.584 4.09862-4.55522-4.64516-7.05562-12.3826-2.06393-15.5552 2.99338-1.89347 6.76768-3.5069 9.59521-5.79064 1.66208 3.49064 10.5165 8.01565 18.5025 6.89728-4.29644-3.03986-8.03246-5.41755-9.08584-11.1106 1.85707 1.19787 9.74739 9.93262 21.73 8.32009-7.12033-5.2179-9.99159-14.323-6.96542-19.0784 3.0271-4.75537 4.87871-11.1043 8.90998-5.66959 4.03126 5.43472 5.64231 7.44021 10.2859 12.3672 4.99534 5.30101 11.6646 10.4719 16.0212 13.6446 4.92152 3.5855 9.51866 7.53235 13.724 13.2896 5.38717 7.37516 8.04978 15.8055 8.03884 26.1383-0.005 5.30191 0.51302 10.1178 1.43427 15.4405 0.57954 3.34159 1.59374 9.46377 1.07525 12.9544-0.80826 3.70386 1.30122 17.2436 3.36333 20.8319 1.17001 2.03531 1.47892 5.53499 2.04753 8.36526 1.36228 6.78254 0.5932 7.38058-2.02019 13.2887-1.32766 3.00191-2.45393 12.2001 0.97956 21.26 2.99885-15.7874 7.84567-12.7828 11.3083-24.3116 1.76232-5.86381 2.31634-10.8504 1.40876-16.0738 6.68476 5.3516 14.9496 8.87476 20.3796 13.4811 2.05663 1.74532 11.3867 10.0076 13.7112 11.7258 4.75933 4.38498 4.11054 3.6144 11.4213 8.99401 0.53945 0.99371 2.01836 7.82595 2.05663 9.59566 0.0118 0.51221 0.39912 4.59638-0.94676 9.32826-1.19188 4.18805-3.47359 8.89916-5.89836 10.4665-2.49403 1.61343-3.35879-4.51869-6.26196-3.95047-3.84081 0.7507-11.5489 6.68047-10.4089 10.3437 1.10987 3.56382 10.0709 1.98652 6.80413 3.88632l-4.17798 2.42828c-2.56783 1.49238-3.51004-1.97298-9.00017-0.99462-6.74582 1.20329-8.35322 9.53784-4.53974 13.9337 2.50861 2.89351 7.66707 0.89886 7.66707 0.89886 5.75074-1.46618 7.78642 0.54383 0.53852 2.60172 0 0-6.99183 2.12925-5.97308 7.64257 0.69526 3.76075 6.06694 7.61906 8.92455 7.06619 3.79252-0.73353 7.99692-3.23046 9.18425-5.41122 2.22521-4.09048 4.21168-1.7146 2.65531 1.53574-0.8848 1.8465-2.38924 5.77981 0.27975 7.68955 3.25216 2.32528 10.8782 0.76334 13.211-1.58905 3.57018-3.60085 2.90134-9.20178 1.96551-10.7845 6.01957-2.0073 9.14689-5.8313 10.8518-9.32826v0.004z"/>
<path d="m681.204 321.424c9.47402 7.44833 16.6445 22.5031 16.793 32.2984-7.40554 15.3348-4.33288 23.4968 4.10689 23.2068 6.88706-0.23126 7.66342-7.94429 6.77498-17.2084-0.79368-8.26408-2.66717-14.1216-7.22603-20.8499-5.95304-8.78443-17.5019-17.5851-20.4488-17.4469z"/>
<path d="m649.685 150.948c-2.95876-1.69474-5.68788-7.81511-5.85828-9.26864l8.69947-0.71547c0.23965 1.79952-0.94767 6.77621-2.84119 9.98411z"/>
<path d="m658.797 166.143c-2.19515 2.5963-2.64894 9.27315-2.30723 10.696l8.42155-2.27741c-0.39547-1.77152-3.22847-6.0454-6.11432-8.41856z"/>
<path d="m750.011 271.802c-5.54754-5.55396-7.96047-11.9255-8.10171-20.4552-0.082-5.15196 0.0984-10.6598 0.25515-15.454 0.11208-3.42199-1.46526-10.4349-2.67172-14.4134 5.12839 4.82493 13.2811 9.35085 18.795 7.99217-11.876-17.2825-0.75541-16.5959-11.2272-39.267 4.68461 3.44458 9.57699 5.35612 15.5674 2.07416-14.5596-15.1379-4.68369-24.383-16.1542-42.2184 5.53934 2.35419 8.27849 2.44001 13.6985-1.85644-11.8542-4.07152-22.2731-23.3198-24.9804-28.3353-2.52319-4.67316-3.49456-10.0148-4.0012-11.7945-2.60611-9.16114-11.7885-15.1062-19.1695-15.3059-16.1442-0.43542-23.2272 3.13291-40.063 7.72477-14.3801 3.92246-13.8771 8.43392-21.7236 13.4657-1.34042 0.85911-11.5015 4.60722-17.6486 7.09693-2.49221 1.00997-3.80528 4.0968-2.94235 6.33899 1.44338 3.75081 3.55561 3.01094 4.18253 5.71475 1.20373 5.19441 5.45824 11.07 9.06761 11.4214 9.57061 0.93139 15.1127-3.78334 23.6554-7.13667 8.35048-3.27835 15.0544 3.84658 18.0878 10.2723 3.28405 6.96142 3.90824 13.1938 0.43375 16.941-2.98427 3.21782-16.69 7.21797-21.3428 7.57842-3.33873 0.25837-6.23825-0.0741-8.94186 1.62517-1.3796 0.86634-0.25333 7.36432-0.2916 10.0717-0.0292 2.11391 2.00835 2.73904 5.31246 2.56559 1.19279-0.0623 4.43219 0.69741 6.88522 1.80314-0.01-1.41559 0.85473-3.46897 2.10675-3.69571 5.02998-0.9097 14.0784-5.69307 14.0128-3.7454-0.17131 4.8981-14.6908 12.2895-24.8282 12.8424-5.66783 0.30895-15.325 0.42369-21.5979-1.19968-13.0515-3.37772-17.1712-11.7674-16.8158-19.8517-10.8144 11.4602-3.04987 27.7508 10.1183 34.7511-5.01812 0.0659-9.04392 1.15362-13.6693 2.06241-9.10679 1.78959-20.5372 1.92238-29.1948-3.06516-2.11223 8.0012 11.5516 25.7254 28.5068 26.1735-6.39043 3.18622-9.66082 8.70223-15.5282 14.3194-5.14935 4.92881-15.6412 9.29483-20.4188 2.57823-0.55129 11.5406 4.97803 18.2419 13.6684 21.4931 6.98637 2.61347 14.5295-0.42188 19.3663-2.76795 5.93846-2.88087 13.4643-6.65246 17.1757-9.35265-1.37139 3.76436-2.8002 7.38871-4.33469 12.3482-1.46708 4.74543-4.73474 9.80524-8.27303 12.6527-2.60156 2.09312-8.36962 4.34795-11.8423 4.27658 2.5733 5.17182 10.8436 7.02465 18.8542 6.39681 15.8726-1.24305 29.88-19.7957 36.4636-32.3047 1.02057 10.2389-11.199 42.2545 9.79841 41.0106-1.57824-6.22606 0.56861-11.6788 5.85463-18.5915 9.96973-13.0366 13.58-21.1788 16.6445-30.5946 4.1634 13.1622-3.91919 18.7758 1.1928 31.1032 3.87636 9.35085 12.369 10.313 17.4673 10.7863-5.78265-12.9698 2.12679-16.7341 6.31023-27.7951 3.61029-9.54326 3.37883-15.4486 2.61067-25.3225 4.05314 4.93695 6.11979 10.7845 7.37455 15.3691 1.34588 4.93062 10.5556 16.2508 22.2959 13.6735z"/>
<path d="m662.634 102.099c21.3573-3.61983 42.7137-3.66681 64.0701 0 0.26334-3.3425 1.42333-7.85306 3.04532-11.5415 2.82936-6.43565 6.4688-13.1983 10.1793-18.9709-2.83026-0.11834-6.5508 2.17713-9.28449 6.79699-1.09347-2.06511-5.625-3.61802-8.53636-0.86814 2.45758 2.65231 6.09792 5.90989 3.65219 9.62457-1.75228 2.66044-5.0327 2.20153-7.23696 0.86272-1.97736-1.20058-3.8071-3.97304-4.45408-8.0816-2.69722 4.54669-5.77899 6.64162-8.55641 6.71119-4.63905 0.11653-6.93443-1.42102-6.93534-3.94957-0.002-4.43648 5.07006-6.10231 8.53637-7.18094-1.13448-3.82489-5.84188-4.72646-7.83108-3.4807-0.0374-5.35612-2.1022-9.18824-4.61263-10.4882-2.51043 1.30086-4.57527 5.13298-4.61263 10.4882-1.98921-1.24576-6.69751-0.34509-7.83107 3.4807 3.46539 1.07863 8.53818 2.74446 8.53636 7.18094-0.00091 2.52765-2.2972 4.0652-6.93534 3.94957-2.77833-0.0696-5.85919-2.1645-8.55641-6.71119-0.64697 4.10856-2.47672 6.88102-4.45499 8.0816-2.20426 1.33881-5.48559 1.79772-7.23605-0.86272-2.44755-3.71559 1.19461-6.97316 3.65128-9.62457-2.91046-2.74988-7.44289-1.19697-8.53636 0.86814-2.73368-4.61986-6.45422-6.91533-9.28357-6.79699 3.7105 5.77256 7.34903 12.5352 10.1793 18.9709 1.62199 3.68848 2.78016 8.19904 3.0435 11.5415v0z" stroke-linecap="round"/>
<path d="m709.206 106.799c1.72586-2.47616 5.71338-5.36154 8.81246-6.54225 4.27092-1.62608 11.9781-1.5529 14.2215 0.47337 5.20857 4.70387-1.83247 13.7467-4.76389 17.7748"/>
</g>
<g fill="none">
<path d="m796.52 421.59c5.95395 1.35596 7.97778 6.60458 8.13816 12.4314"/>
<path d="m633.52 130.649c0.69709-1.83927 6.0314-9.01388 11.5826-10.4584 9.15691-2.38221 13.6538 3.70655 15.8417 4.83576"/>
<path d="m642.796 126.268c4.17706-3.63067 13.9609-0.16893 16.5725 1.93956"/>
<path d="m674.051 130.884c10.2003-1.87361 16.7957 5.10136 18.3439 12.4792"/>
<path d="m674.398 114.651c-4.17342 1.72272-5.50928 4.14377-8.21835 4.54849-2.26896 0.33877-5.17941-0.81575-6.0633-2.06241 3.73967-1.47701 5.22861-4.27748 7.93222-4.66774 2.87584-0.41284 4.70922 1.11295 6.34943 2.18166z"/>
<path d="m658.105 113.276c3.10638-1.32705 7.91765-7.05988 14.7464-7.07976 5.70974-0.0172 7.68984 2.31807 9.2699 4.11127"/>
<path d="m647.507 426.866c3.94925 3.09498 4.72015 7.84673 2.87584 12.4314"/>
</g>
</g>
</g>
</svg>
